<?xml version="1.0" standalone="no"?>
<!DOCTYPE svg PUBLIC "-//W3C//DTD SVG 20010904//EN"
 "http://www.w3.org/TR/2001/REC-SVG-20010904/DTD/svg10.dtd">
<svg version="1.0" xmlns="http://www.w3.org/2000/svg"
 width="2299.000000pt" height="2299.000000pt" viewBox="0 0 2299.000000 2299.000000"
 preserveAspectRatio="xMidYMid meet">
<metadata>
Created by potrace 1.14, written by Peter Selinger 2001-2017
</metadata>
<g transform="translate(0.000000,2299.000000) scale(0.100000,-0.100000)"
fill="#000000" stroke="none">
<path d="M16580 19540 c-47 -9 -107 -20 -135 -23 -27 -4 -80 -15 -117 -25 -38
-11 -68 -18 -68 -15 0 2 -9 -1 -19 -7 -13 -7 -22 -7 -26 0 -7 12 -74 -20 -95
-47 -8 -10 -21 -30 -29 -45 -8 -15 -17 -25 -21 -23 -4 2 -40 7 -81 10 -96 7
-123 13 -188 41 -29 13 -55 24 -56 24 -1 0 -2 -17 -1 -37 1 -33 -2 -38 -36
-51 -33 -13 -38 -12 -56 6 -11 11 -26 22 -33 24 -10 3 -3 17 21 48 19 24 31
42 25 38 -5 -3 -54 -9 -109 -12 l-98 -7 19 28 c38 55 36 56 -32 19 -71 -39
-172 -70 -261 -80 -67 -7 -127 -16 -141 -21 -15 -5 -19 9 -22 75 -2 30 -4 56
-5 57 -2 2 -20 -28 -41 -67 -41 -75 -67 -92 -133 -86 -19 2 -64 -3 -100 -11
-37 -7 -78 -15 -92 -17 -14 -2 -55 -20 -92 -40 -73 -40 -88 -43 -88 -22 0 13
-35 32 -52 28 -3 -1 -19 -4 -35 -7 -15 -2 -39 -8 -53 -11 -14 -3 -79 -7 -145
-9 -115 -3 -120 -4 -155 -32 -58 -48 -203 -92 -355 -108 -33 -3 -69 -8 -80
-10 -22 -4 -142 -18 -162 -18 -7 0 -13 -3 -13 -7 0 -3 -10 -6 -22 -7 -22 -2
-83 -12 -193 -34 -44 -8 -62 -12 -110 -22 -5 -2 -14 -5 -20 -8 -5 -3 -21 -6
-35 -7 -14 -1 -90 -25 -170 -53 -80 -28 -179 -62 -220 -75 -41 -14 -148 -61
-236 -104 -89 -44 -167 -80 -173 -80 -7 0 -9 -5 -5 -12 4 -7 3 -8 -4 -4 -7 4
-63 -27 -128 -70 -113 -75 -199 -150 -259 -228 -58 -74 -56 -69 -37 -98 l18
-27 39 18 c22 10 71 41 108 69 38 29 79 52 92 52 13 0 26 4 29 8 3 5 15 8 28
6 13 -1 29 -3 36 -3 7 -1 16 -9 19 -18 4 -10 11 -21 15 -24 5 -3 15 -23 22
-44 12 -34 11 -42 -7 -74 -11 -20 -28 -45 -36 -56 -15 -18 -15 -19 2 -6 9 7
17 9 17 4 0 -5 -8 -18 -17 -29 -10 -10 -20 -28 -22 -39 -3 -20 -3 -20 18 -1
28 25 41 12 46 -43 3 -36 1 -43 -19 -51 -21 -7 -23 -15 -21 -57 1 -26 -4 -60
-12 -75 -14 -30 -14 -30 32 -32 21 -1 22 -12 3 -58 -6 -16 -17 -28 -25 -28 -7
0 -16 -7 -20 -16 -7 -20 17 -65 31 -57 6 4 4 -2 -4 -12 -12 -15 -12 -17 -1
-10 11 6 13 4 8 -9 -4 -10 -7 -35 -7 -57 0 -28 -4 -39 -15 -39 -11 0 -14 -8
-10 -29 4 -23 1 -31 -15 -36 -24 -8 -24 -11 -6 -61 14 -43 11 -70 -7 -56 -7 4
-23 13 -38 19 l-25 11 7 -60 c10 -88 42 -115 137 -117 54 -1 99 -65 51 -73
l-21 -3 23 -29 c22 -28 22 -29 4 -62 -18 -34 -18 -35 3 -50 44 -31 56 -71 57
-204 2 -111 5 -131 28 -178 14 -28 22 -50 17 -47 -10 6 -40 -103 -45 -161 -3
-37 -1 -44 14 -44 25 0 33 -37 15 -71 -7 -15 -14 -47 -14 -71 0 -73 -54 -208
-98 -242 -14 -12 -30 -24 -36 -28 -7 -5 -1 -17 18 -35 19 -19 30 -24 33 -16 3
10 8 9 19 -2 30 -29 26 -60 -17 -123 -34 -51 -38 -65 -29 -82 12 -22 36 -27
43 -7 3 6 6 2 6 -9 1 -26 20 -65 44 -88 9 -10 17 -25 17 -33 0 -9 -3 -13 -7
-10 -3 4 -14 0 -24 -9 -17 -15 -17 -18 3 -62 46 -108 76 -305 52 -343 -4 -7
-3 -9 3 -6 7 4 13 -15 18 -50 5 -40 3 -59 -4 -61 -9 -3 -9 -8 -1 -17 6 -7 9
-23 6 -36 -5 -33 11 -49 46 -49 23 0 29 -4 24 -15 -3 -8 0 -15 7 -15 7 0 8 -3
2 -8 -12 -8 -15 -53 -3 -46 4 3 8 -2 8 -10 0 -9 -5 -16 -11 -16 -5 0 -7 -5 -4
-10 4 -6 12 -4 21 5 20 20 23 19 17 -5 -3 -11 -11 -20 -17 -20 -6 0 -12 -10
-13 -21 -2 -20 -1 -20 11 -3 12 16 14 13 17 -29 4 -40 2 -45 -8 -30 -16 21
-17 6 -2 -36 6 -17 15 -31 21 -31 5 0 6 -4 3 -10 -3 -5 -1 -19 5 -30 6 -11 7
-20 2 -20 -12 0 -2 -59 11 -67 7 -4 8 0 3 13 -4 10 -4 15 1 11 4 -5 15 -39 24
-77 l16 -69 -26 -26 c-25 -24 -25 -27 -11 -53 9 -15 32 -35 51 -44 35 -16 36
-20 42 -80 3 -35 9 -73 13 -86 6 -21 5 -22 -20 -12 -37 14 -37 14 -22 -22 7
-18 17 -58 20 -87 5 -34 21 -80 43 -120 47 -85 195 -257 212 -247 3 2 38 7 76
11 72 7 200 40 223 58 8 6 12 6 12 -2 0 -6 -10 -16 -22 -21 -17 -6 -18 -9 -6
-9 9 -1 27 14 39 32 34 48 51 58 64 40 10 -13 16 -11 49 11 44 30 106 49 130
40 9 -3 16 -1 16 5 0 6 6 11 14 11 8 0 16 4 18 10 2 5 26 12 53 15 28 2 71 12
95 20 25 9 56 18 70 20 14 2 73 15 132 29 59 14 122 26 140 26 25 0 29 3 18
10 -18 12 -17 12 42 15 26 1 45 -2 43 -6 -12 -19 249 40 289 66 19 12 125 37
188 44 3 1 4 10 1 20 -4 15 5 24 36 41 23 11 46 18 51 15 6 -4 36 6 68 21 31
15 63 26 70 25 7 -1 28 7 46 18 18 12 36 18 39 15 8 -8 101 33 299 132 28 14
59 27 67 29 47 9 346 199 338 214 -1 3 -9 19 -17 34 -15 31 -8 30 -129 11 -31
-5 -33 -4 -22 10 11 13 9 19 -13 41 -15 15 -32 25 -39 22 -6 -2 -18 3 -26 11
-13 12 -16 12 -26 -2 -7 -9 -20 -16 -29 -16 -10 0 -23 -14 -31 -32 -11 -28
-11 -35 1 -49 13 -15 11 -17 -23 -22 -20 -4 -40 -3 -43 1 -3 4 -15 13 -28 20
-19 10 -26 10 -45 -3 -12 -8 -17 -15 -13 -15 5 0 -10 -18 -32 -41 -33 -32 -46
-39 -64 -33 -13 3 -24 11 -26 15 -2 5 -8 9 -13 9 -14 0 -48 -33 -43 -41 11
-18 -104 -61 -127 -49 -19 11 -148 -15 -294 -57 -66 -19 -174 -50 -240 -69
-66 -18 -172 -52 -235 -74 -95 -33 -268 -81 -289 -80 -4 0 2 5 12 11 9 5 17
18 17 29 0 10 15 28 34 40 37 23 44 35 46 90 4 76 4 76 -42 36 -47 -40 -126
-82 -136 -71 -4 4 1 12 11 20 20 15 14 41 -16 68 -18 15 -22 15 -36 3 -9 -8
-20 -15 -24 -15 -4 0 -25 -8 -47 -18 -31 -14 -41 -25 -46 -50 -7 -37 -4 -50
11 -45 5 2 6 0 2 -5 -5 -4 -12 -8 -15 -8 -21 -2 -154 -52 -194 -73 -25 -14
-72 -48 -105 -77 l-58 -52 55 3 c109 7 160 16 174 30 8 8 24 14 35 14 12 0 21
4 21 9 0 5 8 8 18 6 9 -2 22 -4 27 -5 44 -4 -424 -158 -487 -160 -9 0 -26 16
-38 35 -12 20 -29 43 -38 52 -15 14 -14 15 5 9 12 -4 25 -1 32 8 10 12 7 32
-13 99 -23 74 -33 114 -35 140 -1 4 -8 7 -17 7 -8 0 -13 4 -9 9 3 6 18 6 37 0
44 -12 57 9 22 37 -26 22 -26 22 -5 29 26 8 26 16 1 64 -23 47 -31 83 -20 101
6 9 12 6 25 -13 l17 -26 38 19 38 19 -16 61 c-21 77 -6 100 29 43 l23 -38 6
40 c3 22 5 77 4 122 -2 75 -6 90 -42 155 -40 75 -42 84 -29 105 14 23 -35 96
-68 101 -30 4 -44 8 -48 13 -12 13 15 142 42 199 17 35 29 66 27 68 -2 2 -20
-1 -39 -6 -29 -8 -36 -7 -40 7 -3 9 -8 23 -12 33 -4 11 0 18 14 23 11 3 21 12
23 20 2 11 15 7 51 -16 40 -25 48 -27 43 -12 -6 21 -26 132 -26 145 0 5 14 1
31 -7 38 -20 43 -16 21 17 -9 14 -29 44 -45 67 -26 39 -61 154 -50 165 3 3 1
11 -4 18 -6 7 -13 28 -16 46 l-7 33 48 -2 c26 -1 47 2 48 7 0 5 -19 24 -43 42
-43 33 -62 73 -58 119 1 12 -1 20 -6 18 -4 -3 -6 7 -5 22 2 16 -1 39 -6 52
-11 29 -2 61 18 61 8 0 14 -4 14 -8 0 -5 13 -18 29 -30 27 -20 32 -20 64 -7
33 13 36 13 85 -21 51 -34 62 -35 42 -4 -14 22 28 43 48 24 7 -8 18 -11 23 -8
6 3 13 -3 16 -15 6 -25 19 -27 31 -5 13 23 28 11 36 -28 l7 -33 24 30 c16 19
21 33 15 39 -13 13 -13 29 1 21 5 -4 3 10 -6 32 -9 21 -19 43 -22 49 -9 22 15
24 41 3 l27 -21 -5 27 c-7 38 13 75 40 75 13 0 34 5 47 11 18 8 30 8 46 0 16
-9 30 -9 54 0 27 9 38 9 59 -2 42 -23 108 -88 108 -106 0 -10 4 -24 9 -31 6
-10 10 -8 16 10 12 38 12 42 -2 65 -15 26 -16 33 -5 33 5 0 23 -21 41 -47 l33
-47 14 25 c15 28 18 53 5 45 -5 -3 -14 0 -20 8 -13 16 4 26 44 26 12 0 28 7
35 15 7 8 20 15 29 15 9 1 34 8 56 16 50 19 95 26 115 18 12 -5 11 -8 -5 -14
-16 -7 -17 -9 -3 -9 9 -1 19 3 22 8 8 12 56 1 56 -13 0 -6 5 -3 11 7 5 9 18
17 27 17 13 0 14 -2 3 -9 -9 -6 -10 -11 -2 -15 6 -4 11 -5 11 -2 0 2 14 1 31
-4 22 -7 31 -5 35 5 3 8 12 11 19 9 8 -3 11 -13 8 -21 -5 -13 -3 -13 15 -4 12
7 22 16 22 22 0 6 9 8 20 4 15 -5 18 -2 15 13 -2 11 2 19 11 19 10 0 11 -4 3
-14 -6 -7 -10 -13 -8 -14 2 0 13 -2 24 -4 11 -2 25 -11 31 -20 11 -15 14 -14
29 9 10 14 18 36 19 50 1 16 10 27 28 34 15 5 27 7 26 4 0 -4 0 -18 1 -31 1
-23 2 -24 21 -6 11 10 20 15 20 10 0 -4 17 18 37 49 21 31 45 58 54 61 10 3
34 19 54 35 21 16 42 27 47 24 5 -3 15 0 23 6 23 19 18 6 -10 -26 -13 -15 -22
-30 -20 -32 5 -5 112 75 163 122 24 23 56 48 70 56 73 41 102 63 108 82 4 12
9 16 13 10 10 -16 26 -2 49 43 14 29 17 46 11 58 -8 13 -6 17 6 17 10 0 13 5
9 12 -5 8 0 9 14 6 19 -5 22 -2 22 22 0 16 -7 35 -15 44 -8 8 -15 19 -15 25 0
14 -13 14 -27 0 -9 -9 -30 -16 -57 -18 -4 -1 -6 -12 -4 -26 5 -22 3 -24 -20
-18 -18 4 -23 3 -18 -6 6 -8 0 -10 -18 -5 -20 5 -37 -1 -66 -20 -25 -17 -40
-22 -40 -14 0 7 -9 2 -20 -12 -16 -20 -22 -22 -29 -11 -6 10 -21 12 -52 7 -97
-14 -89 -20 -94 62 -2 41 -6 76 -9 79 -2 3 -16 -18 -31 -47 -20 -40 -35 -56
-68 -71 -23 -10 -50 -19 -59 -19 -10 0 -29 -18 -43 -40 -29 -46 -32 -62 -8
-53 12 5 15 2 10 -10 -6 -15 -1 -19 19 -16 4 0 11 -5 15 -13 6 -9 9 -10 9 -1
0 7 7 10 15 6 14 -5 13 -7 -3 -19 -23 -16 -94 -41 -138 -48 -23 -4 -36 -1 -49
14 -20 22 -41 26 -47 9 -6 -19 -38 3 -38 27 0 21 -10 29 -33 25 -4 -1 -13 10
-19 24 -13 28 -18 29 -68 15 -30 -9 -38 -7 -57 13 l-23 22 24 26 c24 26 86
129 86 143 0 4 -24 -6 -54 -23 -29 -17 -56 -31 -60 -31 -4 0 -5 12 -4 27 3 26
1 28 -49 31 -55 4 -94 -11 -147 -55 -16 -13 -35 -22 -42 -19 -17 7 -31 -21
-29 -57 2 -22 -1 -26 -16 -22 -10 4 -27 1 -38 -4 -27 -15 -34 0 -32 61 l1 49
-30 -16 c-16 -8 -30 -20 -30 -25 0 -6 -17 -8 -39 -5 -35 4 -41 2 -47 -18 -9
-29 -24 -38 -45 -26 -14 7 -25 3 -45 -16 -34 -31 -40 -31 -57 1 -13 25 -14 24
-30 -42 -9 -37 -14 -71 -12 -75 3 -4 -4 -5 -16 -2 -12 3 -18 11 -15 19 6 16
-19 19 -29 5 -6 -10 -48 -1 -85 19 -22 12 -22 11 -15 -16 16 -66 16 -100 -2
-116 -15 -14 -90 -36 -130 -40 -7 -1 -13 -5 -13 -10 0 -4 -9 -8 -19 -8 -11 0
-48 -24 -82 -52 -33 -29 -69 -57 -79 -62 -9 -5 -39 -40 -66 -77 -27 -37 -52
-65 -55 -64 -3 2 -6 24 -8 49 -1 24 -4 55 -7 68 -4 13 -7 59 -8 102 -1 76 -2
80 -26 88 -29 9 -58 53 -64 95 -7 56 -18 103 -25 103 -3 0 -6 21 -7 48 0 26
-4 76 -8 112 -4 36 -9 95 -11 131 -6 101 -68 423 -86 445 -5 6 -6 14 -2 17 3
4 1 7 -5 7 -11 0 -34 58 -38 97 -1 13 -5 32 -9 43 -4 12 -2 20 5 20 7 0 7 7
-2 23 -6 12 -13 29 -14 37 -1 8 -16 53 -34 100 -17 47 -40 110 -50 140 -32 96
-79 190 -115 233 -20 22 -34 46 -32 51 2 6 23 16 47 23 37 11 46 11 60 -2 14
-13 23 -13 46 -4 16 6 57 11 92 11 60 0 62 1 63 27 1 14 1 30 0 34 -2 11 79 6
104 -6 11 -6 23 -15 27 -21 4 -7 21 -3 50 11 85 42 178 56 178 28 0 -21 9 -19
30 8 15 17 22 20 36 11 9 -5 18 -18 20 -28 4 -26 5 -26 49 -4 22 11 52 23 66
28 l26 8 -19 -50 -19 -50 42 7 c102 17 165 72 161 141 -3 38 27 78 68 93 17 5
28 6 25 1 -3 -4 1 -11 7 -13 10 -4 10 -6 1 -6 -7 -1 -13 -9 -12 -18 0 -11 3
-13 6 -5 2 6 9 10 14 6 5 -3 9 0 9 5 0 6 6 10 13 9 6 -2 11 3 9 10 -1 8 2 11
7 7 6 -3 15 4 22 17 11 20 12 21 25 4 7 -11 18 -15 25 -10 7 4 10 3 6 -3 -4
-6 0 -14 9 -17 27 -10 42 -7 48 12 8 23 69 57 118 66 20 4 74 9 120 11 45 3
99 8 118 11 19 3 49 8 65 10 17 2 44 7 60 11 46 11 65 10 130 -5 62 -14 143
-17 178 -6 13 4 17 12 14 25 -3 10 -2 17 2 15 11 -7 53 -15 166 -32 187 -27
308 -65 354 -110 24 -22 26 -22 53 -6 30 17 38 42 13 42 -8 0 -15 4 -15 10 0
15 68 29 98 20 24 -7 131 -53 157 -68 6 -3 5 1 -2 9 -10 13 -8 15 17 13 17 -1
32 2 35 6 7 11 -22 33 -35 25 -5 -3 -10 0 -10 9 0 10 12 14 45 14 24 -1 51 5
60 12 8 7 15 10 15 6 0 -4 18 3 40 14 54 28 86 26 94 -4 l6 -24 42 21 c32 16
63 22 131 23 100 1 112 -5 123 -64 4 -20 13 -49 20 -64 19 -37 19 -38 -21 -83
-19 -22 -35 -44 -35 -50 0 -5 5 -3 10 5 8 12 10 11 10 -7 0 -16 6 -23 21 -23
11 0 17 -4 14 -10 -3 -5 0 -10 7 -10 7 0 2 -7 -10 -16 -15 -10 -21 -22 -17
-34 3 -11 -3 -38 -15 -61 -11 -24 -20 -44 -20 -45 0 -1 16 -1 35 2 19 2 35 1
35 -3 0 -15 -15 -30 -36 -37 -20 -6 -21 -10 -11 -36 6 -17 16 -30 23 -30 6 0
11 -15 11 -34 0 -19 -3 -35 -6 -34 -3 0 -13 0 -21 -1 -12 -1 -11 -4 4 -16 19
-15 14 -35 -10 -35 -17 0 -19 -31 -2 -48 17 -17 -5 -32 -45 -32 -16 0 -27 -3
-25 -7 33 -69 36 -71 111 -77 20 -1 37 0 37 3 0 3 13 7 30 8 34 2 32 -21 -3
-32 -20 -6 -19 -8 14 -23 30 -14 35 -20 28 -37 -12 -31 -11 -32 30 -39 43 -7
53 -25 50 -96 -2 -43 8 -76 33 -113 14 -19 18 -36 14 -55 -15 -66 -16 -83 -6
-101 7 -13 16 -18 27 -14 13 5 15 2 9 -18 -4 -13 -9 -37 -11 -54 -18 -124 -20
-128 -57 -184 -22 -33 -26 -46 -17 -52 8 -5 20 1 31 13 12 14 18 17 18 7 0
-12 2 -12 9 0 12 18 18 3 16 -41 -1 -21 -9 -46 -18 -56 -9 -10 -17 -24 -17
-30 0 -18 20 -25 35 -12 11 10 15 7 20 -13 4 -15 19 -30 36 -38 16 -6 35 -21
41 -33 10 -20 10 -20 -8 -5 -18 16 -77 39 -97 39 -5 0 6 -15 26 -32 44 -41 87
-105 87 -129 0 -11 4 -19 10 -19 5 0 14 -19 21 -42 6 -24 17 -63 25 -88 40
-135 56 -231 53 -305 0 -11 0 -31 0 -45 1 -14 2 -46 3 -72 1 -26 6 -45 11 -41
5 3 4 -5 -3 -17 -11 -21 -10 -22 9 -17 15 3 21 1 18 -6 -2 -7 0 -21 6 -31 8
-16 6 -18 -7 -13 -14 5 -15 3 -6 -13 6 -10 16 -23 23 -27 7 -4 13 -16 14 -25
2 -43 4 -49 13 -43 5 3 15 -5 22 -20 10 -22 8 -28 -12 -50 -30 -32 -21 -51 35
-75 25 -11 45 -26 45 -34 0 -8 3 -22 6 -31 6 -14 1 -16 -22 -15 -16 1 -33 2
-38 1 -11 -1 50 -70 86 -97 20 -15 25 -24 16 -27 -8 -3 0 -16 25 -37 41 -35
90 -102 102 -140 4 -14 21 -41 36 -60 32 -38 38 -60 12 -39 -12 9 -10 3 5 -18
13 -18 25 -41 27 -50 2 -10 13 -38 24 -63 11 -25 21 -55 21 -67 0 -21 10 -28
32 -24 4 0 14 -9 22 -22 20 -32 89 -198 89 -214 0 -7 6 -12 13 -11 7 2 12 1
12 -2 -1 -3 4 -15 11 -27 7 -14 8 -23 2 -23 -17 0 7 -50 47 -100 57 -70 71
-84 88 -86 9 -2 29 -15 45 -30 29 -28 27 -36 -16 -62 l-20 -12 20 2 c16 3 21
-4 23 -35 3 -32 6 -36 21 -27 10 5 21 7 24 3 3 -3 14 -3 23 1 13 5 14 9 4 21
-11 13 -10 14 4 9 25 -10 32 24 8 46 -31 29 -65 153 -67 245 -2 91 -17 144
-54 195 -27 37 -54 110 -41 110 13 0 19 39 9 73 -5 17 -8 35 -6 38 1 3 -4 14
-12 23 -13 15 -12 17 14 12 15 -3 49 -8 74 -12 l46 -6 -25 18 c-14 10 -29 22
-35 26 -5 4 -21 16 -34 27 l-25 18 38 13 c34 11 39 10 57 -9 16 -17 22 -19 33
-9 16 17 30 98 16 98 -5 0 -10 6 -10 14 0 21 -20 30 -33 17 -14 -14 -47 -14
-47 0 0 5 -5 7 -11 3 -6 -3 -9 -19 -7 -34 8 -52 -20 -21 -52 58 -58 140 -82
182 -125 217 -23 19 -45 35 -50 35 -12 0 1 -113 19 -152 24 -55 1 -58 -25 -3
-12 25 -25 45 -30 45 -7 0 -32 67 -34 95 -1 6 -8 24 -17 40 -9 17 -20 48 -24
69 -3 21 -15 47 -25 57 -17 17 -17 18 2 24 10 4 19 11 19 16 0 6 4 8 9 4 17
-10 24 18 8 30 -10 7 -17 23 -17 37 0 14 -3 28 -7 32 -15 15 -8 31 18 43 26
11 26 13 16 53 -8 28 -8 43 -1 48 17 12 52 66 56 87 2 14 -2 19 -14 17 -25 -4
-22 5 7 24 19 12 29 14 38 5 10 -8 20 -3 43 20 28 29 28 31 12 59 -11 20 -13
32 -6 36 6 4 15 -1 20 -10 9 -16 11 -15 23 8 25 48 -20 188 -89 279 -24 32
-27 40 -15 48 11 8 9 14 -15 35 -28 24 -28 25 -4 19 14 -4 38 -7 54 -9 42 -3
71 -25 100 -74 25 -42 25 -43 42 -22 20 25 52 18 52 -12 0 -12 10 -23 28 -29
15 -5 36 -22 47 -38 21 -33 32 -31 46 6 12 31 24 23 27 -18 1 -18 5 -35 8 -38
3 -4 36 -6 72 -6 l67 -1 -3 -28 c-3 -26 -2 -27 18 -16 26 14 36 8 18 -11 -8
-8 -13 -20 -12 -26 1 -7 2 -18 3 -24 0 -5 5 -8 9 -5 5 3 21 7 36 10 34 6 44
-14 22 -46 -22 -31 -21 -33 25 -36 36 -2 45 2 75 35 19 21 32 43 29 51 -3 8 0
10 7 6 7 -5 9 -2 6 8 -4 8 -2 21 3 29 7 12 9 12 9 0 0 -11 3 -11 15 -1 12 10
13 7 5 -19 -9 -34 -8 -34 42 1 l28 19 12 -25 c13 -29 26 -33 34 -11 4 9 18 22
32 29 23 12 31 11 62 -3 19 -9 37 -18 40 -21 15 -16 67 -30 111 -30 45 0 56
-5 96 -40 47 -41 93 -53 93 -25 0 14 137 -91 170 -130 7 -8 17 -12 23 -8 5 3
7 2 4 -4 -5 -8 16 -81 29 -101 1 -1 13 2 27 9 15 7 23 17 20 25 -3 8 0 14 7
14 6 0 8 5 5 10 -4 6 -12 7 -18 4 -8 -5 -8 -3 0 6 11 12 18 9 44 -16 17 -16
37 -41 45 -57 13 -24 18 -26 35 -16 16 8 18 14 10 22 -6 6 -11 16 -11 21 0 6
5 5 12 -2 16 -16 51 -15 92 2 18 8 39 10 45 6 9 -5 5 -9 -10 -13 -43 -11 -3
-34 73 -41 39 -3 77 -11 85 -17 9 -8 13 -8 13 -1 0 6 64 -12 143 -39 78 -28
159 -55 180 -61 20 -6 37 -15 37 -20 0 -6 -7 -8 -15 -4 -22 8 -18 -2 6 -15 15
-8 19 -8 15 0 -9 15 -5 14 32 -5 18 -8 37 -12 43 -8 7 4 10 3 7 -2 -7 -12 30
-46 37 -34 3 5 13 6 21 3 11 -4 12 -8 4 -13 -8 -5 -1 -12 19 -21 17 -8 31 -18
31 -22 0 -5 5 -5 10 -2 6 3 10 2 10 -2 0 -5 9 -14 21 -21 17 -11 20 -11 13 0
-6 10 -4 10 9 -1 15 -12 21 -9 19 10 -1 4 9 2 22 -4 13 -6 22 -16 20 -22 -3
-6 7 -12 21 -13 19 -1 24 2 19 11 -5 8 -2 7 9 -2 9 -7 17 -10 17 -7 0 4 10 0
22 -8 24 -17 42 -21 34 -8 -4 7 17 8 61 3 7 0 17 -19 23 -41 6 -22 13 -40 16
-40 2 0 20 7 40 15 19 8 37 14 41 14 3 -1 9 5 13 12 5 7 15 9 26 4 11 -4 28
-10 38 -12 28 -5 28 -7 6 -33 -11 -13 -20 -27 -20 -31 0 -7 41 -4 95 6 11 2
25 5 30 6 6 0 18 5 28 10 13 7 17 6 17 -6 0 -14 6 -15 33 -9 35 9 145 9 217 1
25 -4 63 -6 85 -7 30 0 36 -3 25 -10 -12 -8 -8 -10 15 -11 17 -1 34 -1 38 0 4
1 16 -3 25 -8 9 -5 36 -11 59 -15 24 -3 53 -12 65 -20 15 -10 28 -12 37 -7 8
5 20 7 28 4 7 -3 13 0 13 7 0 14 42 9 136 -14 34 -8 72 -17 85 -20 13 -2 33
-8 43 -12 14 -5 17 -4 12 4 -5 8 0 12 13 12 12 0 21 -4 21 -10 0 -5 3 -9 8 -7
4 1 8 -2 10 -8 4 -16 46 -23 139 -23 54 0 94 5 107 13 12 7 38 15 58 18 33 4
42 1 67 -29 26 -29 30 -31 33 -13 3 19 5 18 41 -6 20 -14 36 -22 35 -18 -2 4
4 23 11 41 8 20 10 37 5 40 -5 4 -9 13 -9 21 0 16 -32 24 -40 11 -6 -10 -20
-8 -123 20 -56 15 -84 29 -104 51 -15 16 -36 29 -47 29 -12 0 -21 5 -21 11 0
5 -4 7 -10 4 -5 -3 -10 -2 -10 4 0 5 -15 13 -32 16 -18 4 -35 11 -38 15 -8 12
-78 19 -108 11 -17 -5 -38 -1 -62 10 -19 9 -39 15 -43 12 -5 -3 -7 3 -5 13 4
27 -89 71 -164 77 -13 1 -18 10 -18 31 0 16 -7 34 -15 40 -13 10 -13 15 5 44
11 18 25 30 31 27 5 -4 16 -2 23 5 11 8 12 17 3 43 -7 18 -13 34 -14 36 -4 7
-173 12 -173 5 0 -4 11 -27 25 -51 23 -38 30 -43 63 -44 27 0 32 -2 18 -8 -24
-9 -128 4 -228 30 -87 22 -159 24 -224 8 l-45 -12 41 -27 c22 -15 69 -35 103
-45 94 -26 96 -28 42 -35 -27 -4 -53 -3 -56 2 -3 5 -13 6 -22 3 -8 -4 -26 -1
-39 6 -12 7 -37 13 -55 15 -17 2 -50 12 -72 23 -22 12 -53 21 -68 21 -15 0
-40 6 -55 14 -19 10 -29 11 -37 3 -8 -8 -11 -5 -11 9 0 11 5 25 12 32 9 9 8
12 -7 13 -11 0 -14 3 -7 6 6 2 12 9 12 14 0 6 -8 5 -20 -1 -15 -8 -27 -7 -50
5 -17 9 -35 13 -40 10 -5 -3 -11 -1 -15 5 -4 6 -10 8 -15 5 -5 -3 -4 8 2 26
11 33 1 48 -32 49 -25 1 -57 34 -85 90 -27 53 -27 54 -40 29 -13 -24 -14 -23
-17 16 l-3 40 -18 -32 c-19 -35 -47 -43 -67 -18 -7 8 -19 15 -27 15 -8 0 -13
7 -11 17 3 14 15 19 58 21 96 5 102 8 97 48 -6 44 -5 42 -50 47 -42 4 -75 26
-41 28 10 1 25 1 32 0 6 -1 12 3 12 9 0 5 -5 10 -11 10 -5 0 -8 4 -4 10 16 26
-145 78 -265 86 -47 3 -89 9 -94 15 -6 5 -21 9 -33 9 -26 0 -83 -26 -83 -38 0
-4 -7 -15 -14 -25 -13 -17 -16 -17 -45 -3 -28 15 -81 79 -81 99 0 5 7 7 15 3
21 -8 19 -1 -10 42 -23 34 -29 37 -75 38 -28 0 -53 4 -57 7 -3 4 15 29 40 56
26 28 47 55 47 60 0 6 -42 -12 -92 -38 -115 -60 -166 -77 -181 -62 -6 6 -24
11 -39 11 l-28 0 24 66 c27 74 29 74 -56 -5 -36 -33 -38 -34 -100 -27 -34 4
-65 12 -69 17 -3 5 -25 -1 -50 -15 -40 -23 -48 -24 -81 -13 -32 11 -34 14 -20
24 15 11 14 12 -8 12 -45 -1 -114 22 -149 48 -33 25 -34 25 -47 8 -8 -10 -14
-24 -14 -30 0 -21 -39 -33 -102 -31 -35 2 -70 6 -77 10 -13 8 -132 44 -171 52
-14 3 -34 8 -45 11 -11 4 -36 8 -55 9 -19 2 -55 5 -80 8 -207 21 -462 28 -453
12 4 -6 -1 -5 -10 3 -9 7 -17 10 -17 5 0 -5 -24 -9 -53 -8 -29 0 -74 -7 -102
-18 -27 -11 -54 -21 -60 -22 -5 -2 -19 -7 -30 -11 -11 -5 -42 -17 -69 -27
l-48 -19 7 28 c9 41 34 75 50 70 8 -4 19 10 29 36 16 40 16 43 -2 57 -10 8
-21 23 -25 34 -6 15 -3 17 15 13 13 -2 48 -1 78 2 52 7 53 8 29 18 -21 9 -26
17 -21 38 4 26 -2 36 -50 73 -15 12 -21 10 -42 -13 l-25 -27 -41 32 c-22 17
-40 35 -41 38 0 4 -2 14 -4 23 -3 19 25 34 80 45 30 5 34 9 21 16 -9 5 -24 11
-34 13 -83 16 -100 25 -116 66 -20 49 -42 74 -80 89 -16 6 -26 13 -23 17 4 3
0 21 -8 40 -14 34 -14 35 6 30 19 -5 19 -4 6 16 -26 41 -33 81 -26 142 4 29 4
29 -42 26 -40 -2 -49 1 -67 24 -17 21 -63 144 -67 180 -6 46 -19 95 -26 95 -5
0 -5 7 -2 17 5 12 3 14 -7 8 -9 -5 -11 -4 -6 4 4 6 -17 61 -48 125 -31 62 -56
117 -56 123 0 5 -29 55 -64 111 -36 56 -63 102 -60 102 3 0 -3 13 -12 29 -10
17 -22 27 -27 24 -6 -3 -7 -1 -4 4 11 18 -28 57 -107 108 -42 27 -74 50 -73
52 2 2 41 5 86 8 45 2 86 7 90 10 21 12 98 16 556 28 103 3 235 -11 253 -25 9
-7 13 -8 10 -3 -4 6 2 17 14 24 14 9 18 9 13 1 -5 -9 -1 -10 16 -5 20 7 22 6
12 -7 -10 -12 -6 -14 30 -13 23 1 66 -4 94 -10 29 -7 50 -8 47 -4 -3 5 4 9 15
9 10 0 21 4 23 9 2 4 12 5 23 0 17 -6 17 -8 3 -8 -10 -1 -18 -5 -18 -11 0 -6
9 -6 26 0 14 6 39 10 56 10 26 0 29 -2 18 -15 -11 -13 -6 -14 31 -9 24 4 50
11 57 16 8 7 12 7 12 -2 0 -10 3 -10 15 0 8 7 15 8 15 2 0 -15 37 -21 51 -8 9
8 10 8 4 -3 -7 -11 -4 -13 11 -6 10 5 44 9 74 8 44 -1 58 -5 73 -25 54 -69 50
-68 100 -34 19 13 38 22 41 18 3 -3 6 0 6 7 0 8 10 6 31 -6 52 -31 56 -42 23
-68 -25 -21 -26 -24 -9 -24 96 -2 117 -1 123 3 5 3 14 1 22 -4 12 -7 12 -12 2
-22 -9 -9 0 -18 44 -42 43 -23 63 -42 81 -76 50 -92 16 -243 -85 -374 -49 -64
-74 -107 -68 -114 3 -3 1 -11 -6 -19 -6 -7 -8 -16 -4 -20 3 -3 6 -1 6 5 0 7 5
12 11 12 8 0 8 -5 -1 -15 -7 -8 -16 -13 -19 -10 -4 2 -25 -14 -45 -35 -21 -22
-42 -40 -47 -40 -5 0 -24 -16 -41 -36 -28 -32 -99 -77 -123 -79 -5 0 -15 -10
-21 -23 -13 -26 -52 -57 -71 -57 -7 0 -41 -25 -75 -55 -34 -30 -66 -55 -70
-55 -5 0 -12 -5 -16 -10 -4 -6 -41 -38 -82 -72 -41 -33 -83 -70 -94 -82 -10
-11 -23 -18 -29 -14 -6 3 -7 1 -3 -5 4 -7 1 -12 -8 -12 -8 0 -18 -5 -22 -11
-4 -8 1 -9 17 -4 l24 8 -20 -24 c-11 -13 -22 -26 -24 -29 -2 -3 -1 4 2 15 6
17 3 16 -16 -6 -13 -14 -28 -24 -33 -22 -6 2 -17 -3 -23 -11 -10 -12 -8 -21
15 -49 l27 -34 88 43 c49 24 95 44 102 44 7 0 22 9 34 19 28 27 69 46 148 72
76 24 113 46 160 94 17 17 39 37 49 45 18 13 19 13 11 0 -18 -31 38 26 62 63
13 21 27 36 31 33 5 -3 28 11 51 30 24 19 48 34 53 34 5 0 18 9 30 20 12 11
31 20 43 20 27 0 132 94 181 163 42 58 69 87 82 87 4 0 14 6 20 12 7 7 18 13
25 13 7 0 13 4 14 9 1 5 6 12 12 16 7 4 9 19 5 38 -5 26 -10 31 -25 27 -23 -8
-23 -4 -4 41 13 31 16 33 34 22 15 -9 18 -19 14 -42 -3 -17 -6 -33 -5 -36 0
-36 5 -51 21 -71 l18 -23 16 30 c9 16 16 24 17 17 0 -6 -11 -25 -25 -41 -15
-19 -21 -33 -15 -37 5 -3 10 -15 10 -26 0 -23 39 -42 57 -27 7 6 13 4 15 -3 2
-7 10 3 17 22 7 19 19 48 26 64 8 17 19 44 25 60 6 17 37 50 68 74 l57 43 -60
-6 c-96 -10 -119 -16 -134 -34 -12 -15 -12 -15 -6 6 4 12 8 51 11 85 2 34 7
75 10 92 8 34 7 159 -1 195 -3 14 -8 38 -11 54 -16 90 -87 186 -172 234 l-41
23 39 -101 c22 -55 46 -112 54 -128 21 -41 30 -98 17 -119 -9 -16 -10 -16 -11
5 0 40 -51 155 -91 208 -22 28 -39 53 -39 57 0 3 -15 21 -32 40 -18 19 -44 47
-57 61 -13 14 -30 26 -39 26 -8 0 -12 3 -9 6 7 7 1 11 -126 82 -72 41 -77 46
-77 77 0 19 -5 37 -12 41 -6 4 -8 3 -5 -3 4 -6 -6 -16 -23 -22 -17 -5 -30 -6
-30 -1 0 5 9 12 20 15 25 8 26 20 3 22 -10 1 -31 5 -48 8 -16 4 -46 7 -65 7
-19 0 -56 6 -81 14 -36 12 -45 19 -45 36 1 19 -5 23 -44 26 -31 2 -51 11 -65
27 -15 17 -28 22 -46 18 -19 -3 -36 3 -60 24 -38 33 -94 73 -102 73 -6 0 -20
-58 -15 -63 2 -2 -4 -12 -12 -22 -13 -17 -13 -18 0 -10 11 6 12 5 5 -3 -16
-18 -70 0 -70 24 0 16 -8 19 -65 21 -36 1 -77 5 -92 9 -19 4 -36 1 -53 -10
-24 -16 -25 -16 -25 8 0 14 4 27 9 30 11 7 189 57 219 61 31 4 31 5 25 38 l-6
28 -66 -6 c-36 -4 -77 -8 -90 -10 -34 -6 -86 34 -86 65 l0 25 -110 1 c-70 1
-141 -5 -195 -16z m1634 -1447 c-5 -29 -24 -57 -24 -36 0 15 18 63 24 63 3 0
2 -12 0 -27z m-1454 -1218 c0 -11 -29 -11 -33 -1 -4 10 1 12 14 9 10 -3 19 -7
19 -8z m-1677 -20 c-3 -9 -8 -14 -10 -11 -3 3 -2 9 2 15 9 16 15 13 8 -4z
m-1636 -46 c2 -16 -1 -19 -9 -11 -5 5 -7 15 -4 21 10 15 12 14 13 -10z m1468
-63 c-11 -8 -25 -12 -31 -9 -8 3 -11 -2 -8 -14 3 -13 -6 -23 -31 -34 -39 -18
-39 -21 5 34 16 20 45 35 69 36 11 1 9 -3 -4 -13z m1913 -325 l32 -39 -41 -7
c-46 -8 -64 6 -48 36 6 12 5 20 -2 25 -8 4 -7 9 2 15 21 13 23 12 57 -30z
m-4024 -47 c5 -14 4 -15 -9 -4 -17 14 -19 20 -6 20 5 0 12 -7 15 -16z m3516
-40 c0 -8 -5 -12 -10 -9 -6 4 -8 11 -5 16 9 14 15 11 15 -7z m-3330 -85 c0 -6
-4 -7 -10 -4 -5 3 -10 11 -10 16 0 6 5 7 10 4 6 -3 10 -11 10 -16z m8487 -625
c-3 -3 -12 -4 -19 -1 -8 3 -5 6 6 6 11 1 17 -2 13 -5z m-9070 -624 c1 -11 -2
-20 -7 -20 -6 0 -7 17 -1 38 3 8 7 -1 8 -18z m4577 -146 c3 -8 2 -12 -4 -9 -6
3 -10 10 -10 16 0 14 7 11 14 -7z m-2844 -868 c0 -2 -7 -7 -16 -10 -8 -3 -12
-2 -9 4 6 10 25 14 25 6z"/>
<path d="M16628 18853 c6 -2 18 -2 25 0 6 3 1 5 -13 5 -14 0 -19 -2 -12 -5z"/>
<path d="M12979 18543 c-13 -16 -12 -17 4 -4 9 7 17 15 17 17 0 8 -8 3 -21
-13z"/>
<path d="M9780 18475 c-14 -8 -32 -17 -41 -21 -12 -4 -16 -16 -14 -42 l1 -37
52 0 c29 0 52 3 52 7 0 4 19 1 41 -7 23 -8 45 -15 50 -15 5 0 -8 27 -28 59
-20 33 -40 58 -44 55 -4 -2 -10 0 -14 6 -9 14 -26 12 -55 -5z"/>
<path d="M10050 18475 c-14 -8 -33 -12 -42 -9 -21 6 -22 -3 -6 -38 25 -52 88
-40 88 17 0 41 -8 47 -40 30z"/>
<path d="M9532 18340 c-36 -16 -69 -20 -175 -22 -73 -1 -179 2 -237 6 -143 11
-555 13 -665 3 -84 -8 -108 -10 -177 -21 -16 -3 -28 0 -28 6 0 7 -4 7 -13 -1
-8 -6 -17 -8 -20 -5 -3 4 -14 3 -24 -1 -10 -4 -31 -7 -47 -6 -15 2 -26 -1 -23
-6 3 -4 -11 -8 -31 -9 -34 -1 -83 -7 -142 -19 -14 -3 -38 -8 -55 -10 -16 -3
-37 -8 -45 -10 -8 -2 -45 -7 -82 -10 -36 -3 -114 -16 -173 -29 l-107 -23 -41
38 c-23 21 -45 39 -49 39 -8 0 -12 -46 -9 -82 2 -15 -7 -21 -21 -17 -2 0 -16
-4 -31 -10 -15 -6 -42 -13 -60 -16 -71 -12 -89 -17 -78 -24 9 -6 -86 -44 -104
-41 -3 0 -18 -6 -34 -14 -15 -8 -39 -17 -52 -20 -24 -4 -132 -58 -156 -78 -15
-12 -11 -47 7 -58 12 -8 29 -7 75 5 11 3 62 15 114 28 72 18 104 22 138 16 46
-9 149 -54 159 -70 3 -6 -6 -28 -20 -50 l-26 -39 37 0 38 0 -37 -22 c-32 -18
-37 -25 -31 -47 9 -35 29 -72 36 -65 3 3 4 -1 3 -10 -3 -19 -14 -31 -29 -31
-7 -1 -11 -6 -10 -12 1 -6 -11 -16 -27 -23 l-29 -12 19 -31 c23 -37 13 -48
-36 -40 l-33 6 9 -34 c5 -18 15 -36 22 -41 34 -23 48 -27 82 -24 20 2 36 0 36
-6 0 -5 3 -7 8 -5 4 3 16 1 27 -4 17 -7 17 -8 -7 -8 -36 -1 -35 -12 3 -35 l31
-18 -23 -24 c-16 -17 -18 -24 -8 -25 26 -1 51 -7 57 -14 4 -4 9 -49 12 -100 4
-69 10 -99 23 -112 16 -18 16 -21 -3 -58 -24 -46 -26 -93 -5 -109 13 -10 13
-17 -1 -66 -9 -30 -17 -67 -18 -82 0 -14 -4 -24 -8 -21 -5 2 -8 -1 -8 -6 0 -6
-20 -31 -44 -56 -33 -33 -41 -47 -32 -54 9 -7 19 -6 33 4 16 11 23 12 30 2 24
-30 21 -47 -12 -82 -19 -19 -35 -39 -35 -44 0 -16 32 -22 48 -9 9 7 13 9 10 3
-9 -15 10 -57 22 -50 6 4 20 -3 31 -16 21 -24 26 -40 7 -21 -17 17 -26 15 -38
-8 -8 -15 -6 -27 10 -52 11 -18 20 -40 20 -50 0 -9 4 -18 9 -20 5 -1 12 -34
16 -72 3 -38 8 -73 10 -77 3 -3 7 -24 11 -45 3 -22 16 -61 28 -89 13 -27 29
-67 36 -87 6 -21 15 -38 19 -38 4 0 8 -7 8 -15 0 -8 -5 -15 -10 -15 -5 0 -4
-7 3 -15 7 -8 10 -15 6 -15 -4 0 0 -12 7 -27 7 -16 12 -49 11 -75 -2 -45 8
-64 19 -35 3 6 6 2 6 -11 1 -12 -5 -25 -13 -28 -12 -5 -13 -11 -4 -30 6 -13
15 -21 19 -18 5 3 6 -2 3 -11 -4 -8 -3 -37 1 -63 6 -37 9 -43 16 -27 4 11 8
15 8 8 1 -6 4 -18 7 -27 4 -10 1 -16 -8 -16 -7 0 -22 -9 -32 -21 -17 -20 -17
-22 5 -45 12 -13 30 -24 39 -24 9 0 27 -12 41 -26 13 -14 45 -37 72 -50 26
-13 47 -27 47 -31 0 -26 -35 -92 -51 -96 -18 -5 -16 -11 21 -68 22 -34 40 -70
40 -79 0 -10 6 -23 14 -29 8 -7 19 -26 25 -43 10 -27 9 -29 -5 -17 -14 11 -14
9 -1 -22 21 -48 41 -143 35 -167 -4 -12 2 -26 14 -36 12 -10 17 -24 13 -35 -8
-27 4 -50 25 -46 18 3 25 -10 36 -72 2 -13 7 -35 10 -50 4 -16 6 -38 6 -50 0
-12 5 -20 12 -17 8 3 12 -7 12 -30 0 -19 -4 -32 -9 -29 -6 4 -7 -6 -3 -23 11
-47 58 -154 68 -154 10 0 98 -133 98 -148 0 -5 -9 -12 -20 -15 -11 -3 -20 -11
-19 -19 0 -10 2 -10 6 0 11 27 22 10 17 -26 l-5 -38 42 -2 c32 -2 40 0 36 11
-3 9 1 14 10 13 25 -2 25 18 1 49 -12 16 -23 36 -24 44 -11 81 -11 97 -4 106
8 9 20 91 20 133 0 6 0 20 0 30 1 61 -3 78 -22 115 -28 53 -32 97 -11 112 14
10 15 26 10 93 -4 45 -3 81 1 81 4 -1 25 -1 47 0 l40 2 -27 15 c-39 21 -35 34
11 34 31 0 41 -4 46 -20 5 -16 12 -19 28 -14 28 8 29 9 32 36 2 13 6 31 10 41
4 10 3 17 -4 17 -6 0 -11 9 -11 19 0 13 -7 19 -22 19 -13 0 -33 3 -45 7 -18 6
-23 3 -28 -18 -4 -14 -1 -36 6 -49 11 -21 11 -22 -4 -10 -19 16 -39 76 -63
182 -21 95 -44 147 -82 183 l-30 29 -10 -48 c-6 -27 -9 -51 -6 -55 2 -3 6 -31
9 -60 l5 -54 -26 50 c-29 56 -38 88 -36 128 1 15 -2 27 -7 27 -4 0 -8 6 -9 13
-6 72 -16 126 -28 144 -8 12 -14 35 -14 51 0 21 -8 35 -25 46 -17 11 -24 24
-21 39 3 24 19 22 23 -3 1 -8 7 -16 12 -18 6 -2 11 -10 11 -18 0 -12 8 -10 40
6 40 21 40 21 25 50 -8 16 -25 38 -37 49 -15 15 -21 32 -20 58 0 25 -2 32 -7
20 -6 -18 -8 -18 -21 -2 -12 14 -10 19 13 41 36 33 34 41 -8 36 -25 -3 -35 0
-36 9 0 8 -3 26 -5 41 -2 14 0 29 5 33 6 3 8 12 4 20 -3 9 1 15 10 15 8 0 30
-23 48 -52 19 -28 39 -53 45 -55 7 -2 24 7 39 20 27 23 27 23 10 56 -9 18 -12
30 -6 27 6 -4 11 -1 11 6 1 7 7 2 15 -12 24 -44 33 -28 40 70 3 42 -3 76 -27
145 -17 49 -35 95 -39 101 -5 6 -4 15 2 21 12 12 -48 77 -76 81 -11 1 -28 3
-37 4 -21 3 -21 5 -7 46 6 17 35 52 65 77 49 42 69 75 45 75 -10 0 -41 89 -41
118 0 10 -9 27 -20 37 -11 10 -17 21 -14 26 2 4 -2 25 -11 45 -8 20 -14 39
-12 40 2 2 27 4 55 5 29 1 55 5 57 9 2 4 -25 20 -60 36 -63 27 -65 30 -80 81
-11 37 -24 58 -43 70 -15 9 -29 18 -31 19 -1 2 -5 19 -7 38 -1 20 -6 41 -9 46
-9 14 9 12 23 -2 15 -15 15 -3 0 25 -14 27 -18 104 -7 135 7 19 5 22 -16 23
-84 5 -110 51 -117 212 -1 37 -6 67 -9 67 -4 0 -5 8 -2 18 2 10 -1 31 -8 47
-7 17 -14 41 -16 54 -2 14 -13 50 -24 80 -10 30 -19 62 -19 71 0 9 -16 53 -35
99 -19 45 -35 85 -35 87 0 3 9 2 20 -1 11 -4 20 -2 20 4 0 7 8 7 23 2 12 -5
20 -15 19 -23 -2 -7 0 -9 4 -5 4 4 9 15 10 25 2 9 8 18 13 20 6 2 11 10 11 18
0 17 2 17 32 5 13 -5 42 -14 66 -20 25 -7 42 -18 42 -27 0 -24 28 -28 58 -8
20 13 48 18 111 18 84 1 120 -11 105 -36 -7 -11 -1 -10 63 8 17 5 22 1 25 -18
3 -24 1 -24 93 -17 55 3 60 1 44 -18 -8 -10 -20 -28 -27 -40 -14 -26 -10 -27
73 -23 106 4 158 37 180 113 17 58 36 75 95 83 35 5 40 3 40 -15 0 -20 0 -20
43 -2 l44 19 43 -29 c43 -29 44 -29 64 -10 34 31 102 44 191 37 103 -9 121
-11 174 -26 25 -6 97 -13 160 -14 100 -3 122 -6 156 -26 51 -29 159 -70 185
-70 13 0 20 7 20 20 0 25 -4 25 59 -5 28 -14 57 -22 63 -19 6 4 8 3 5 -2 -3
-6 23 -25 58 -43 36 -19 72 -41 82 -50 10 -9 36 -28 59 -44 22 -15 50 -36 62
-47 24 -23 37 -26 26 -7 -6 9 -4 9 8 -1 18 -14 50 -97 41 -106 -3 -2 10 -4 28
-3 44 2 53 16 26 38 -12 9 -20 20 -17 23 9 9 94 -16 114 -33 10 -9 20 -15 22
-13 2 1 5 -1 5 -5 1 -5 10 -19 20 -32 11 -13 19 -30 19 -37 0 -8 4 -14 9 -14
6 0 16 -12 23 -27 7 -15 22 -29 32 -31 15 -3 18 1 14 22 -6 29 -4 30 20 17 10
-5 38 -12 62 -16 62 -8 106 -23 120 -41 10 -11 9 -14 -4 -14 -13 0 -16 -7 -14
-27 2 -19 11 -29 33 -36 17 -5 47 -22 67 -38 20 -16 41 -29 46 -29 36 0 245
-282 306 -411 49 -107 57 -129 62 -177 5 -55 27 -146 36 -153 12 -8 -2 -40
-14 -33 -6 4 -5 -3 1 -15 7 -11 8 -21 4 -21 -4 0 -2 -4 6 -9 8 -5 15 -19 16
-30 1 -11 -2 -18 -6 -15 -5 3 -7 -26 -5 -63 2 -37 -1 -78 -5 -90 -5 -13 -4
-25 2 -28 14 -9 8 -95 -7 -95 -20 0 -24 -28 -4 -33 16 -4 17 -9 6 -41 -10 -33
-12 -35 -18 -14 -5 21 -6 21 -8 3 -5 -34 -3 -59 5 -80 5 -16 5 -17 -4 -5 -6 8
-11 10 -11 5 0 -6 5 -16 12 -23 9 -9 9 -12 -1 -12 -8 0 -11 -7 -8 -20 3 -10 0
-21 -5 -22 -6 -2 -11 -18 -12 -35 0 -17 -4 -29 -8 -26 -5 2 -8 0 -8 -6 0 -5 4
-12 9 -16 6 -3 1 -29 -11 -63 -11 -31 -20 -62 -21 -68 0 -7 -18 -18 -40 -25
-21 -7 -41 -18 -43 -23 -10 -28 -10 -63 -1 -83 8 -19 6 -27 -14 -46 -13 -12
-49 -52 -79 -87 -30 -36 -99 -110 -155 -166 -106 -106 -192 -160 -318 -200
-31 -10 -57 -21 -57 -26 0 -4 -7 -4 -17 -1 -12 5 -14 3 -8 -7 5 -8 4 -11 -3
-6 -6 4 -23 4 -37 0 -15 -4 -22 -10 -16 -13 11 -7 -106 -60 -146 -66 -45 -7
-56 -32 -28 -69 13 -17 15 -17 21 -3 4 12 18 17 51 17 l44 0 -31 -45 c-17 -25
-35 -43 -41 -40 -5 3 -6 0 -3 -8 3 -8 0 -18 -7 -23 -8 -5 -10 -3 -4 7 5 8 -11
-8 -35 -34 -23 -26 -45 -46 -47 -43 -12 12 -67 -55 -97 -116 l-32 -67 -62 57
c-34 32 -62 55 -62 52 0 -3 -5 2 -10 10 -8 12 -10 8 -9 -15 3 -86 -28 -150
-114 -233 -49 -49 -164 -136 -189 -144 -10 -4 -5 -28 28 -140 4 -12 -28 -44
-113 -113 -117 -95 -193 -141 -245 -148 -15 -1 -31 -6 -35 -10 -9 -10 -13 -37
-5 -38 52 -6 75 -25 51 -42 -14 -11 -87 -107 -155 -203 -40 -58 -143 -184
-177 -216 -33 -33 -57 -36 -57 -8 0 12 -7 20 -17 21 -10 0 -26 2 -35 4 -10 2
-18 -2 -19 -8 0 -7 -2 -41 -3 -77 -3 -61 -38 -170 -55 -170 -4 0 -29 7 -55 16
-44 15 -48 15 -60 -2 -14 -19 -120 -261 -122 -279 -1 -5 -2 -17 -3 -25 -1 -12
-4 -12 -12 3 -15 25 -27 21 -34 -13 -4 -16 -10 -30 -15 -30 -4 0 -10 -10 -14
-22 -10 -36 -23 -4 -21 48 1 24 -1 44 -5 44 -4 0 -7 6 -7 14 0 8 -6 28 -13 46
-12 29 -14 30 -24 13 -6 -10 -11 -20 -11 -23 -1 -3 -16 -36 -34 -75 -48 -105
-99 -244 -106 -295 -4 -25 -11 -47 -16 -51 -21 -12 22 -108 73 -164 28 -30 56
-72 63 -91 22 -64 0 -192 -52 -305 l-27 -58 -32 20 -32 20 -8 -58 c-5 -32 -8
-85 -9 -118 l0 -60 -86 -80 c-85 -80 -85 -80 -76 -115 21 -78 -16 -319 -57
-369 -6 -8 -10 -16 -8 -18 1 -2 -5 -17 -14 -34 -8 -17 -14 -40 -11 -50 3 -11
1 -17 -4 -13 -5 3 -9 -3 -9 -13 0 -23 -39 -123 -40 -103 0 8 -8 0 -16 -19 -8
-19 -12 -41 -9 -48 2 -8 1 -12 -4 -9 -11 7 -23 -22 -14 -36 3 -6 1 -8 -5 -4
-13 8 -26 -29 -16 -45 4 -7 3 -9 -3 -6 -8 5 -24 -28 -84 -178 -7 -16 -13 -34
-15 -40 -1 -5 -13 -41 -27 -80 -52 -145 -83 -284 -91 -415 -6 -92 -25 -147
-109 -315 -67 -132 -111 -235 -102 -235 3 0 -1 -12 -8 -27 -14 -28 -67 -219
-67 -241 0 -7 17 -12 45 -12 33 0 45 -4 45 -15 0 -8 -4 -15 -9 -15 -12 0 -61
-119 -100 -240 -40 -126 -67 -226 -145 -532 -96 -373 -182 -638 -259 -792 -37
-75 -38 -81 -27 -122 16 -55 46 -104 65 -104 8 0 15 1 16 3 0 1 3 25 6 52 10
88 31 77 49 -25 36 -216 38 -367 5 -522 -41 -192 -49 -340 -18 -321 5 3 7 1 4
-5 -10 -15 3 -43 16 -35 6 3 7 1 3 -6 -10 -16 2 -48 21 -55 27 -11 31 10 26
133 -4 94 -3 114 8 104 7 -7 13 -21 14 -30 21 -203 20 -198 50 -287 29 -87 98
-212 115 -208 6 1 9 -1 6 -6 -3 -5 6 -26 19 -48 14 -21 25 -35 25 -31 0 4 -7
19 -16 32 -9 14 -14 25 -11 25 8 0 64 -91 96 -156 16 -32 59 -120 96 -194 76
-154 98 -207 85 -215 -10 -6 -46 39 -119 148 -46 69 -71 88 -71 55 0 -6 34
-59 75 -117 41 -58 104 -149 139 -202 73 -111 198 -279 267 -359 105 -123 556
-561 669 -651 75 -61 307 -209 326 -209 2 0 27 -11 56 -25 28 -14 55 -25 60
-25 10 0 116 -69 137 -88 7 -7 20 -11 28 -8 7 3 16 0 19 -8 3 -7 10 -13 17
-13 7 0 64 -25 127 -56 306 -148 645 -258 985 -321 88 -17 206 -36 250 -41 28
-4 60 -8 73 -10 12 -2 88 -11 170 -20 186 -20 183 -19 152 -34 l-25 -12 25 6
c25 6 58 8 93 6 12 -1 16 -5 11 -13 -6 -10 -5 -10 8 -1 8 7 17 11 19 9 8 -9
168 -20 282 -20 65 0 113 -2 108 -4 -29 -10 -4 -17 59 -18 43 0 67 3 63 9 -3
6 -1 7 5 3 19 -12 53 -16 47 -5 -4 5 1 9 10 9 10 0 13 -5 9 -13 -6 -9 -4 -9 7
-1 8 6 39 11 69 12 45 0 50 -1 25 -8 -20 -5 15 -8 102 -9 118 -1 132 1 137 17
5 14 16 18 49 17 24 -1 47 -3 52 -6 18 -8 145 6 148 16 1 6 6 9 10 7 7 -2 104
15 195 34 16 3 22 0 23 -13 0 -16 2 -15 9 2 5 11 9 15 9 9 1 -12 31 -15 31 -2
0 4 -5 8 -12 8 -6 0 -9 3 -6 6 4 3 16 1 27 -6 12 -6 21 -7 21 -1 0 5 -6 12
-12 14 -7 3 -3 6 8 6 12 1 66 14 120 30 94 28 141 36 73 12 -18 -6 -30 -14
-26 -17 3 -3 52 12 109 34 57 22 113 43 126 47 12 3 19 11 16 17 -4 7 -2 8 4
4 7 -4 18 -4 25 1 13 8 23 11 67 20 17 3 27 10 23 16 -3 6 -1 7 5 3 12 -7 102
13 102 23 0 3 15 7 32 8 18 2 34 7 36 13 2 6 8 8 13 4 16 -10 48 6 42 21 -3
10 -10 12 -21 6 -24 -12 -133 -21 -126 -10 3 5 14 9 25 9 10 0 19 5 19 10 0 6
5 10 10 10 6 0 50 20 98 43 48 24 128 61 177 82 50 21 92 42 93 47 2 4 8 6 13
2 5 -3 9 0 9 7 0 7 3 10 6 6 3 -3 24 5 46 19 112 71 95 68 288 49 30 -3 43 3
82 38 25 23 62 55 80 70 35 29 64 89 53 107 -10 16 13 75 40 100 13 12 49 33
80 45 156 64 388 255 645 532 72 76 85 84 55 31 -30 -51 -30 -54 -7 -61 9 -2
25 -8 34 -12 37 -15 176 237 284 515 38 98 120 260 137 272 6 3 16 4 22 1 31
-11 155 409 195 662 12 75 16 398 7 505 -5 45 -3 59 3 45 15 -29 3 117 -18
226 -6 30 -16 92 -23 139 -12 88 -84 316 -150 475 -7 17 -13 35 -15 42 -6 30
-104 223 -113 223 -10 0 -94 136 -129 210 -36 76 -236 316 -397 475 -164 163
-369 325 -545 430 -36 21 -68 44 -72 49 -4 6 -8 7 -8 2 0 -6 -6 -3 -12 6 -7 8
-31 25 -53 37 -22 13 -31 15 -20 7 11 -9 27 -23 37 -30 9 -8 20 -11 24 -8 4 4
4 1 0 -6 -5 -9 -19 -4 -52 19 -27 18 -42 35 -38 42 4 7 -4 0 -19 -15 -25 -27
-44 -38 -32 -19 3 5 -21 25 -52 44 -68 41 -221 119 -226 115 -1 -2 -14 4 -27
13 -68 44 -460 179 -515 177 -16 0 -48 4 -70 10 -22 6 -56 14 -75 17 -19 3
-44 8 -55 12 -11 3 -31 7 -45 9 -14 1 -70 11 -125 22 -271 55 -408 65 -600 46
-44 -5 -123 -8 -177 -9 -53 0 -91 -3 -85 -7 8 -5 6 -8 -5 -8 -10 0 -18 5 -18
11 0 5 -3 8 -7 6 -5 -3 -38 -8 -75 -11 -37 -4 -81 -11 -98 -16 -16 -5 -30 -7
-30 -5 0 3 -10 1 -23 -4 -13 -5 -48 -12 -77 -16 -29 -4 -62 -9 -74 -11 -12 -3
-34 -7 -51 -10 -16 -3 -75 -20 -130 -39 -55 -19 -116 -36 -135 -39 -45 -7
-181 -61 -301 -121 -99 -50 -309 -182 -309 -195 0 -4 9 -19 21 -34 14 -18 25
-24 33 -17 21 18 231 83 306 96 19 3 51 10 70 15 38 9 96 16 235 26 50 4 106
8 125 10 189 18 625 23 1035 11 116 -4 268 -7 340 -8 103 -2 135 -6 160 -20
16 -9 71 -31 120 -47 50 -17 107 -38 129 -47 21 -9 54 -18 74 -21 37 -5 184
-74 216 -103 10 -9 24 -28 32 -42 8 -17 63 -55 156 -109 350 -205 680 -434
811 -564 18 -17 64 -58 102 -91 141 -120 250 -240 320 -353 6 -9 22 -35 36
-57 46 -70 151 -294 156 -333 4 -33 1 -39 -27 -54 -31 -17 -31 -17 -41 10 -43
113 -149 300 -251 445 -70 97 -74 100 -110 69 -17 -14 -17 -16 0 -41 10 -14
23 -39 30 -56 l12 -30 -18 25 c-9 14 -44 59 -78 100 -95 118 -168 158 -241
135 -18 -5 -33 -12 -33 -15 0 -3 28 -25 61 -50 186 -138 362 -432 472 -790 46
-150 50 -166 53 -225 2 -27 6 -81 10 -120 10 -86 10 -188 1 -280 -4 -38 -10
-119 -12 -180 -5 -105 -11 -165 -20 -193 -4 -11 32 -32 55 -32 11 0 43 70 76
165 30 84 42 135 49 207 4 29 8 67 10 83 3 17 4 98 4 180 0 83 0 168 1 190 0
22 2 86 3 143 1 56 5 102 10 102 4 0 7 -2 7 -4 0 -1 11 -33 24 -70 51 -140 69
-249 70 -421 1 -143 -6 -260 -18 -321 -2 -12 -7 -38 -10 -59 -4 -20 -8 -40
-11 -44 -2 -4 -6 -19 -8 -32 -26 -143 -154 -427 -277 -617 -33 -51 -55 -90
-49 -87 6 4 5 -2 -2 -13 -7 -12 -17 -18 -23 -15 -5 3 -6 1 -2 -5 4 -7 -11 -31
-33 -55 -23 -24 -38 -46 -36 -49 6 -5 -389 -406 -470 -479 -70 -61 -246 -179
-270 -179 -9 0 -6 35 5 46 6 6 -2 21 -24 42 l-34 32 -41 -45 c-51 -56 -64 -85
-66 -155 -1 -30 -6 -64 -12 -74 -5 -10 -39 -38 -74 -62 l-64 -45 -12 28 c-7
15 -12 38 -13 50 0 12 -10 31 -21 42 -21 20 -22 20 -48 0 -15 -11 -35 -34 -44
-52 -33 -60 -138 -111 -362 -177 -60 -17 -130 -40 -154 -51 -24 -10 -46 -19
-50 -19 -14 1 107 70 132 76 25 5 28 9 22 32 -3 15 -10 31 -15 36 -17 17 -163
-46 -245 -105 -44 -31 -81 -56 -83 -54 -2 2 8 22 23 45 l26 41 -23 19 c-31 26
-41 25 -65 -8 -11 -15 -44 -40 -73 -56 -45 -25 -64 -29 -124 -28 -61 1 -119 6
-136 12 -3 2 -8 2 -12 1 -3 0 -39 11 -79 24 -40 14 -74 25 -76 25 -9 0 -1 -66
13 -98 15 -36 15 -37 -12 -59 -15 -12 -56 -27 -91 -33 -57 -11 -66 -11 -83 5
-11 10 -20 24 -20 31 0 14 -30 34 -49 34 -6 0 -11 -9 -11 -20 0 -36 -101 -110
-152 -110 -21 0 -20 2 9 28 32 28 52 85 34 96 -5 4 -40 2 -77 -4 -94 -15 -211
-15 -264 0 -52 15 -67 15 -132 -6 -68 -22 -85 -51 -63 -106 6 -14 1 -16 -27
-12 -48 7 -102 25 -109 37 -8 11 8 64 25 86 5 7 10 37 10 67 l0 53 87 21 c48
11 97 20 110 20 19 0 164 32 333 75 42 10 176 57 176 61 0 3 -6 20 -14 38
l-14 33 -73 -18 c-77 -20 -211 -44 -294 -54 -27 -3 -61 -8 -74 -11 -15 -3 -31
2 -45 14 -11 10 -42 28 -68 38 -27 10 -46 24 -44 29 2 6 9 9 15 8 7 -2 11 13
11 37 0 25 -5 40 -12 41 -7 0 -21 2 -31 4 -17 3 -66 8 -207 20 -78 7 -179 14
-295 20 -192 10 -466 30 -550 40 -16 2 -55 6 -85 10 -47 5 -114 16 -264 41
-16 3 -32 6 -35 8 -3 2 -22 7 -42 10 -42 6 -75 -20 -66 -53 4 -17 2 -18 -23
-9 -23 7 -30 17 -35 50 -10 59 -34 78 -100 78 -62 0 -132 -21 -184 -56 -20
-13 -51 -28 -68 -35 -32 -11 -34 -9 -145 87 -216 186 -293 281 -363 447 -15
37 -31 67 -34 67 -3 0 -19 -19 -35 -41 l-29 -41 -39 45 c-21 25 -54 55 -73 67
-41 25 -47 44 -9 29 42 -15 60 -4 62 41 2 34 -3 45 -37 81 -22 24 -38 46 -36
50 3 4 -2 12 -9 18 -10 8 -16 9 -21 1 -3 -5 -15 -10 -26 -10 -23 0 -39 35 -45
99 -2 24 -7 48 -11 54 -4 7 1 8 13 3 10 -4 46 -16 79 -28 33 -11 68 -24 77
-29 29 -16 21 3 -47 107 -36 54 -81 131 -101 170 l-35 72 19 39 20 38 -30 30
c-42 41 -129 177 -171 266 -41 86 -81 215 -73 235 3 7 1 16 -4 19 -5 3 -6 13
-3 22 5 12 3 14 -7 8 -8 -5 -11 -4 -6 3 6 9 -22 140 -70 323 -18 72 -18 81 4
75 9 -3 39 -8 66 -12 l49 -7 -41 55 c-74 97 -83 146 -87 478 -4 235 -7 281
-29 353 -13 44 -13 48 4 57 15 8 17 15 10 38 -15 44 -80 371 -80 401 0 46 35
81 80 81 21 0 41 3 44 8 5 8 9 36 31 202 8 63 17 125 19 136 2 12 7 39 10 60
6 35 28 161 41 224 3 14 15 52 29 85 108 274 115 295 97 295 -5 0 -17 17 -27
38 -38 79 -9 357 66 638 32 119 138 386 222 561 24 50 41 90 36 87 -4 -3 -5 2
-2 10 3 9 9 16 13 16 4 0 7 8 8 18 1 9 17 51 36 92 19 41 49 109 67 150 17 41
58 129 90 195 112 231 180 377 180 386 0 5 5 9 11 9 6 0 9 7 5 15 -3 8 -1 15
4 15 4 0 11 14 15 30 4 17 11 27 16 24 6 -3 10 0 8 7 -3 28 1 40 13 33 7 -5 8
-3 3 6 -4 7 -3 15 2 19 9 5 77 142 212 421 22 47 57 114 77 150 19 36 69 130
111 210 105 200 207 382 252 449 21 31 53 83 71 116 124 221 311 520 329 527
5 1 42 32 82 68 40 36 75 64 78 63 3 -1 13 5 22 13 9 8 24 12 33 8 20 -8 45
21 46 51 0 12 6 27 13 34 10 10 7 10 -15 2 -24 -9 -26 -8 -21 7 4 9 19 29 34
44 26 26 27 27 43 9 16 -17 15 -20 -8 -48 -31 -37 -41 -75 -28 -112 6 -16 7
-32 4 -36 -4 -3 -7 -22 -9 -41 -1 -28 2 -37 20 -43 12 -5 25 -7 30 -4 4 2 7
-1 7 -8 0 -7 11 -2 25 11 14 13 25 29 25 36 0 7 9 16 20 19 11 3 20 10 20 15
0 5 11 20 24 34 19 21 33 26 70 26 60 0 53 14 -28 50 -56 26 -63 27 -88 14
-16 -8 -28 -12 -28 -10 0 3 81 87 180 187 99 99 180 185 180 189 0 5 21 32 46
62 61 71 102 140 86 146 -7 2 -19 10 -26 18 -8 8 -21 14 -28 14 -17 0 -95 -81
-132 -137 -16 -24 -31 -43 -33 -43 -2 0 -1 5 2 10 3 6 4 10 2 10 -2 0 -17 -18
-32 -40 -15 -22 -34 -40 -42 -40 -9 0 1 19 26 50 23 28 60 74 83 103 23 28 53
63 66 77 24 26 100 120 162 200 19 25 45 56 57 70 13 14 23 30 23 37 0 6 4 13
8 15 5 2 27 37 51 78 68 120 74 127 110 114 34 -13 41 -5 41 49 0 26 -2 29
-11 17 -9 -12 -10 -12 -5 3 3 10 6 24 6 29 0 6 3 9 6 6 11 -11 75 63 70 80 -3
9 8 41 24 69 28 48 32 52 54 43 24 -9 25 -7 37 47 7 32 20 60 31 66 11 8 18
24 18 44 0 31 14 52 80 123 27 29 42 69 21 56 -15 -9 -71 15 -71 31 0 8 7 21
15 29 10 10 13 24 9 41 -6 21 -4 25 9 20 21 -8 25 8 21 86 -2 40 0 67 6 67 22
0 0 87 -22 89 -5 1 -8 3 -8 6 0 3 0 9 0 15 0 5 14 8 32 6 39 -4 45 -21 73
-206 17 -115 12 -106 53 -102 20 3 40 9 43 13 3 5 0 50 -7 100 -12 83 -11 96
6 138 10 25 24 45 30 43 50 -12 48 93 -6 318 -29 120 -61 207 -112 300 -58
107 -81 140 -98 140 -16 0 -16 12 1 53 5 12 2 17 -9 17 -9 0 -16 4 -16 8 0 8
-67 50 -82 51 -5 1 -25 1 -46 1 l-38 0 -38 93 c-115 277 -118 286 -96 272 6
-3 10 4 10 17 0 15 -3 19 -8 11 -6 -9 -25 3 -65 41 -44 42 -53 55 -40 60 17 7
54 -20 50 -36 -1 -5 9 -16 23 -25 23 -14 24 -14 6 1 -11 9 -21 24 -22 33 -1
10 -5 27 -9 37 -6 14 -5 17 3 12 7 -4 12 -5 12 -1 0 7 -152 105 -163 105 -4 0
-26 12 -50 27 l-42 26 30 13 c17 7 23 13 15 14 -11 0 -12 2 -3 8 8 5 -16 16
-62 30 -41 12 -145 55 -232 96 -87 40 -175 79 -196 86 l-37 12 21 29 c12 17
20 32 18 34 -2 2 -24 -1 -49 -5 -51 -10 -127 6 -220 45 -58 25 -126 39 -172
36 -16 -1 -28 4 -28 10 0 11 -31 10 -167 -7 -51 -7 -51 -6 -55 22 -3 31 -8 33
-137 49 -30 4 -63 9 -75 11 -12 2 -41 7 -66 10 -25 4 -55 10 -68 15 -13 5 -28
7 -33 3 -5 -3 -9 -2 -9 3 0 17 -76 12 -118 -7z m1778 -681 c0 -5 5 -7 12 -3 7
4 8 3 4 -4 -10 -16 -23 -15 -30 3 -3 8 -1 15 4 15 6 0 10 -5 10 -11z m120
-114 c0 -13 -20 -35 -32 -35 -4 0 -8 16 -8 35 0 33 1 34 20 23 11 -7 20 -18
20 -23z m-3790 -1755 c0 -5 -5 -10 -11 -10 -5 0 -7 5 -4 10 3 6 8 10 11 10 2
0 4 -4 4 -10z m3830 -406 c0 -2 -7 -4 -15 -4 -8 0 -15 4 -15 10 0 5 7 7 15 4
8 -4 15 -8 15 -10z m-720 -957 c0 -1 -33 -34 -72 -72 -40 -39 -61 -57 -48 -40
63 75 120 129 120 112z m-142 -357 c-7 -10 -14 -17 -17 -15 -4 4 18 35 25 35
2 0 -1 -9 -8 -20z m3267 -4778 c-3 -3 -11 0 -18 7 -9 10 -8 11 6 5 10 -3 15
-9 12 -12z m-5235 -3692 c10 -19 10 -20 -9 -8 -11 6 -17 16 -15 20 8 12 12 10
24 -12z"/>
<path d="M16569 17759 c-11 -7 -10 -12 7 -30 18 -17 25 -19 42 -10 19 10 21
40 3 42 -3 0 -13 2 -22 4 -9 1 -23 -1 -30 -6z"/>
<path d="M16659 17682 c-28 -33 -8 -48 40 -32 38 12 57 40 29 40 -7 0 -22 3
-33 6 -12 3 -26 -2 -36 -14z"/>
<path d="M11382 17634 c10 -10 20 -15 24 -12 3 4 -5 12 -18 18 -22 12 -22 12
-6 -6z"/>
<path d="M6302 17435 c-56 -24 -40 -45 38 -49 41 -3 48 -1 47 14 -1 10 -13 25
-27 33 -22 13 -30 13 -58 2z"/>
<path d="M4445 17405 c3 -20 15 -54 27 -75 l23 -39 -42 -40 c-22 -22 -49 -51
-60 -64 -10 -13 -52 -36 -93 -52 -67 -26 -86 -41 -180 -133 -120 -119 -114
-125 46 -47 51 25 99 45 109 45 30 0 115 -42 115 -57 0 -9 6 -13 14 -10 9 4
15 -4 18 -23 7 -45 -3 -53 -52 -45 -50 8 -48 -7 3 -30 31 -13 31 -14 10 -20
-27 -9 -26 -4 -8 -48 l14 -35 -39 5 c-48 7 -53 -11 -16 -54 20 -24 32 -28 82
-29 91 -3 94 -3 94 -19 0 -8 -8 -15 -17 -15 -15 -1 -14 -4 6 -21 22 -18 23
-21 7 -37 -17 -20 -22 -37 -7 -27 5 3 22 -5 37 -18 23 -20 27 -32 30 -92 3
-43 11 -80 23 -100 17 -29 17 -35 4 -66 -19 -45 -14 -94 10 -93 12 1 16 -3 13
-15 -3 -9 -15 -54 -27 -100 -17 -67 -29 -91 -60 -124 -22 -22 -39 -42 -39 -43
0 -2 9 -8 21 -14 15 -9 24 -8 35 0 11 10 15 9 20 -5 6 -15 2 -27 -31 -85 -16
-28 -4 -50 18 -32 11 9 17 7 27 -13 7 -14 21 -27 32 -31 19 -6 45 -44 30 -44
-5 0 -12 3 -16 7 -4 4 -24 13 -45 19 l-37 11 51 -51 c50 -49 53 -55 79 -161
16 -60 29 -135 31 -165 1 -30 5 -127 9 -215 4 -88 9 -171 11 -185 3 -14 7 -41
10 -60 3 -19 11 -40 17 -47 6 -8 10 -39 9 -70 -1 -51 6 -68 13 -31 5 23 18 48
25 48 4 0 12 -13 18 -30 10 -27 9 -32 -13 -49 l-25 -20 20 -20 c12 -12 32 -21
44 -21 20 0 24 -5 25 -29 0 -17 5 -39 11 -50 18 -32 14 -43 -10 -31 -11 7 -23
9 -26 6 -8 -8 26 -56 40 -56 17 0 75 -49 59 -50 -9 0 -7 -9 8 -29 35 -50 70
-179 86 -321 26 -219 63 -360 95 -360 10 0 19 -1 19 -3 0 -1 18 -80 40 -175
22 -94 40 -176 40 -181 0 -5 -14 -8 -31 -6 -32 4 -89 -28 -70 -39 5 -3 11 0
14 6 7 21 16 5 19 -34 2 -31 5 -35 19 -27 10 5 25 6 33 3 14 -5 13 -9 -4 -32
-16 -20 -18 -27 -8 -34 9 -5 10 -8 1 -8 -6 0 -14 4 -17 9 -7 10 -56 2 -56 -9
0 -5 18 -16 40 -26 22 -10 40 -23 40 -28 0 -6 6 -4 13 4 7 9 26 17 44 18 27 2
30 -1 26 -18 -3 -11 -12 -20 -20 -20 -12 0 -13 -3 -4 -14 6 -8 10 -20 9 -27
-2 -8 2 -13 8 -12 7 1 10 -6 7 -16 -7 -27 22 -33 57 -13 19 11 33 13 38 7 4
-5 15 -17 26 -25 18 -14 18 -13 11 19 -12 55 -12 63 -3 105 4 23 11 75 14 117
5 61 3 83 -11 112 -9 21 -21 37 -26 37 -5 0 -9 15 -9 33 0 17 -14 77 -31 132
-20 67 -28 111 -24 133 7 35 -8 163 -30 262 -4 14 -8 36 -11 50 -6 31 -33 153
-44 197 -9 36 -3 48 17 31 11 -9 12 -7 7 8 -3 10 10 -9 30 -44 20 -34 36 -69
36 -78 0 -31 28 -45 68 -35 1 1 -6 11 -17 23 -11 11 -18 25 -15 30 3 4 -2 8
-10 8 -11 0 -16 9 -16 28 l0 27 19 -32 c16 -25 26 -32 50 -31 33 1 33 3 -10
51 -9 10 -25 44 -34 75 -10 31 -21 62 -25 67 -4 6 -11 21 -15 35 -9 29 -63
100 -76 100 -14 0 -11 -38 8 -97 12 -38 14 -59 7 -70 -15 -24 -27 -20 -51 16
-21 30 -35 85 -48 176 -10 73 -14 89 -40 139 l-25 49 27 -18 c16 -10 44 -29
63 -43 38 -29 34 -20 -31 55 -32 37 -35 47 -32 89 2 27 6 50 8 52 2 2 -1 16
-6 30 -7 18 -6 27 3 33 10 7 10 13 1 27 -18 30 2 43 42 26 18 -7 43 -15 56
-18 82 -15 81 -15 77 -68 -4 -46 -3 -50 23 -64 41 -21 69 -18 145 18 64 30 68
31 78 13 25 -43 82 -97 132 -125 29 -17 56 -35 59 -40 3 -5 -27 -41 -66 -80
-53 -52 -69 -74 -61 -82 20 -20 72 -10 143 27 71 37 137 45 131 17 -1 -7 6
-15 15 -19 50 -18 179 -119 283 -219 64 -63 137 -129 161 -147 56 -42 142 -92
152 -89 4 1 7 -5 5 -14 -3 -16 14 -24 52 -26 8 0 21 -5 28 -11 7 -5 12 -6 12
0 0 5 -6 15 -12 22 -11 11 -10 12 2 5 15 -8 156 -104 303 -206 99 -69 221
-131 302 -153 33 -9 76 -25 95 -35 27 -14 44 -17 70 -11 48 12 70 22 71 32 1
5 2 13 3 18 0 5 4 13 9 17 14 15 7 34 -14 34 -15 0 -19 5 -15 16 3 8 2 13 -3
10 -5 -3 -12 1 -15 10 -5 12 -14 14 -38 9 -18 -4 -39 -12 -46 -18 -16 -12 -18
-10 -31 33 l-10 35 0 -45 c1 -66 1 -66 -25 -41 -21 20 -23 27 -14 54 10 28 8
33 -19 57 -19 17 -40 27 -57 26 -20 -1 -42 12 -84 52 -55 51 -106 81 -164 95
-14 4 -39 19 -55 34 -16 16 -51 45 -77 67 -26 21 -52 51 -58 66 -5 16 -35 51
-67 78 -36 32 -70 73 -91 113 -30 57 -87 122 -148 171 -28 22 -28 34 0 41 22
6 22 6 3 27 -17 19 -20 19 -25 5 -5 -15 -9 -14 -35 7 -17 14 -82 50 -146 81
-84 41 -134 74 -182 117 -54 50 -212 248 -316 398 -16 22 -50 46 -105 73 -44
21 -92 45 -106 53 -14 8 -33 17 -42 20 -11 3 -18 15 -18 30 0 28 16 42 42 38
15 -3 16 1 7 27 -8 23 -7 36 5 58 l15 28 1 -32 c0 -44 12 -47 45 -13 15 15 37
31 50 34 29 7 41 47 19 63 -14 10 -13 13 6 23 32 17 46 7 59 -44 6 -24 16 -48
21 -51 6 -4 0 -19 -14 -38 -36 -49 -56 -93 -56 -124 1 -26 2 -25 22 15 24 51
35 57 72 42 21 -8 26 -15 21 -30 -3 -11 -4 -20 -2 -20 10 0 133 57 427 199
l55 26 -35 6 c-35 6 -35 6 -10 16 19 8 30 8 46 -2 11 -7 25 -10 31 -7 17 12
33 49 33 79 0 39 17 57 68 72 37 10 229 96 242 108 3 3 -3 11 -14 18 -17 13
-17 14 3 36 12 13 21 28 21 33 0 6 6 0 13 -14 8 -14 19 -24 25 -22 7 1 18 3
25 5 13 2 14 -17 2 -44 -5 -12 2 -19 26 -28 36 -12 49 -8 49 19 0 10 7 25 15
33 8 8 16 25 19 38 2 13 5 29 7 34 2 6 -10 30 -26 54 -24 36 -31 41 -33 25 -6
-29 -20 -40 -34 -26 -10 10 -6 19 18 42 34 31 53 26 55 -15 0 -13 10 0 27 35
42 85 43 86 58 66 10 -15 12 -5 11 57 -1 41 1 73 6 70 4 -2 7 11 7 29 0 18 2
92 5 163 3 96 0 144 -10 178 l-14 47 29 0 28 0 -57 113 c-31 61 -65 126 -76
142 -24 40 -104 115 -121 115 -8 0 -14 6 -14 14 0 8 -31 22 -82 36 -98 27
-111 36 -105 68 4 22 -3 28 -69 58 -40 19 -79 34 -88 34 -8 0 -17 4 -20 9 -3
5 -18 12 -33 16 -16 3 -53 18 -84 32 -56 24 -57 25 -85 6 -23 -15 -50 -18
-149 -19 -66 -1 -127 2 -135 6 -26 14 -169 28 -350 35 -140 5 -337 -9 -480
-35 -25 -5 -76 -14 -115 -21 -38 -6 -110 -22 -160 -34 l-90 -22 -22 36 c-18
31 -131 140 -154 149 -5 2 -6 -13 -4 -33z m1045 -395 c0 -19 0 -19 33 0 l34
20 28 -24 28 -24 32 24 c27 21 39 23 91 19 32 -3 84 -12 114 -21 30 -9 91 -21
135 -26 86 -11 126 -27 164 -67 29 -31 72 -61 87 -61 6 0 15 10 21 22 9 21 11
19 41 -24 35 -51 75 -145 67 -158 -3 -5 0 -10 7 -12 7 -3 0 -17 -19 -36 -16
-17 -33 -29 -36 -25 -4 3 -7 -1 -7 -10 0 -19 25 -23 35 -7 4 6 10 8 15 5 12
-7 1 -35 -14 -35 -22 0 -55 -30 -50 -45 3 -8 11 -13 17 -12 6 1 18 -20 27 -48
16 -49 16 -90 -1 -101 -5 -3 -6 1 -4 9 3 7 -3 22 -15 32 -20 18 -20 18 -21
-11 -4 -102 -21 -144 -80 -199 -39 -35 -421 -234 -559 -290 -36 -14 -74 -30
-85 -35 -34 -16 -258 -88 -290 -93 -47 -8 -87 -26 -80 -37 3 -5 0 -10 -7 -10
-8 0 -14 8 -14 18 -1 9 -4 25 -9 35 -6 14 -1 17 31 17 l39 1 -37 19 c-41 22
-67 55 -91 118 -22 54 -21 62 3 62 27 0 25 13 -2 25 -15 7 -31 32 -47 76 -20
53 -31 70 -58 84 -38 21 -41 31 -14 40 18 6 18 7 0 55 -10 28 -19 70 -19 94 0
40 -2 44 -30 49 -48 10 -79 69 -95 179 -10 74 -53 234 -84 313 -37 95 -37 99
-8 84 12 -7 22 -11 22 -10 0 1 12 -2 27 -8 15 -6 40 -30 55 -53 15 -24 28 -45
30 -47 11 -16 10 12 -1 50 l-14 45 64 2 c35 1 73 -2 84 -6 20 -7 19 -8 -5 -45
-32 -46 -20 -47 36 -2 53 42 59 43 59 9 0 -26 1 -26 43 -19 92 16 109 13 79
-13 -48 -44 -30 -65 43 -49 53 11 81 39 94 94 13 52 40 78 82 81 23 2 29 -2
29 -18z m-328 -1277 c19 -17 26 -49 8 -38 -6 4 -8 11 -4 16 3 6 0 10 -7 8 -28
-3 -38 1 -33 16 8 19 13 19 36 -2z m-32 -753 c0 -5 -4 -10 -10 -10 -5 0 -10 5
-10 10 0 6 5 10 10 10 6 0 10 -4 10 -10z m-14 -175 c18 -43 17 -45 -1 -45 -8
0 -15 6 -16 13 0 6 -2 24 -3 40 -2 36 2 34 20 -8z m138 -1541 c9 -24 8 -26
-14 -14 -11 6 -18 15 -15 21 9 14 22 11 29 -7z"/>
<path d="M5130 16414 c0 -3 11 -25 25 -48 l25 -43 -26 -11 c-16 -8 -22 -16
-17 -25 4 -6 8 -23 8 -37 0 -21 4 -25 25 -22 14 1 31 3 38 4 6 1 13 8 13 17 6
70 4 77 -33 116 -21 21 -38 43 -38 47 0 4 -4 8 -10 8 -5 0 -10 -3 -10 -6z"/>
<path d="M5071 16377 c-8 -8 -6 -16 6 -29 21 -23 40 -23 53 1 8 16 5 21 -19
29 -20 7 -32 7 -40 -1z"/>
<path d="M6520 17381 c11 -41 16 -48 39 -54 22 -5 44 6 47 25 1 7 5 21 9 31 6
14 2 17 -26 17 -19 0 -44 3 -56 6 -21 6 -22 4 -13 -25z"/>
<path d="M8003 17104 c-3 -8 -14 -14 -24 -14 -24 0 -24 -19 1 -48 14 -16 26
-21 45 -18 28 5 29 0 10 -46 -4 -11 1 -22 18 -33 23 -15 27 -14 61 2 31 16 36
22 36 56 0 23 -4 36 -10 32 -5 -3 -10 -1 -10 6 0 7 -10 9 -25 7 -22 -5 -25 -2
-25 23 0 15 -5 31 -11 34 -20 13 -61 12 -66 -1z"/>
<path d="M18328 17088 c-10 -10 -18 -26 -18 -35 0 -12 -3 -14 -8 -7 -4 6 -21
15 -38 18 -26 6 -34 3 -45 -16 -8 -13 -15 -39 -14 -58 0 -33 2 -35 30 -32 49
5 57 10 46 29 -6 12 -5 20 6 29 13 9 21 5 42 -18 24 -28 28 -29 55 -17 24 11
27 18 24 46 -2 18 1 33 6 33 15 0 -15 25 -44 36 -20 8 -29 7 -42 -8z"/>
<path d="M1682 17070 c-27 -15 -52 -18 -140 -16 -59 1 -114 5 -123 9 -13 6
-22 -2 -41 -35 l-23 -43 -129 -1 -128 0 -14 -27 c-8 -15 -18 -27 -22 -27 -5 0
-46 -25 -92 -56 -158 -104 -190 -119 -190 -89 0 31 -39 15 -59 -23 -25 -49
-42 -64 -61 -52 -26 17 -37 11 -66 -32 -50 -74 -97 -127 -107 -121 -6 3 -7 1
-3 -5 3 -6 2 -13 -4 -17 -5 -3 -10 3 -10 14 0 12 5 21 11 21 8 0 8 5 -1 15 -7
8 -9 15 -5 15 4 0 2 6 -4 13 -6 8 -7 18 -3 22 4 5 2 5 -5 1 -7 -4 -9 -14 -6
-23 4 -10 2 -14 -4 -10 -6 4 -16 -6 -22 -23 -5 -17 -14 -30 -19 -30 -9 0 -62
-111 -81 -169 -6 -18 -8 -38 -4 -44 4 -6 1 -7 -7 -2 -18 11 -4 -28 26 -72 28
-42 29 -61 8 -134 -19 -65 -31 -81 -55 -74 -15 5 -19 -2 -24 -38 -4 -24 -5
-53 -3 -64 2 -13 -13 -36 -44 -67 -40 -41 -45 -51 -39 -74 12 -45 -1 -155 -21
-179 -6 -7 -8 -19 -5 -27 3 -8 3 -17 0 -20 -4 -3 -8 -18 -9 -33 -2 -14 -8 -29
-15 -33 -6 -4 -8 -13 -5 -19 4 -6 2 -11 -5 -11 -6 0 -9 -8 -6 -20 3 -11 2 -18
-3 -15 -4 3 -10 -4 -13 -15 -3 -13 -1 -18 6 -13 7 4 6 -1 -2 -11 -29 -35 -60
-222 -57 -346 1 -63 -3 -140 -10 -170 -25 -113 -44 -242 -44 -301 0 -56 2 -61
19 -56 16 4 19 0 15 -17 -6 -29 -5 -292 1 -338 7 -51 15 -276 15 -427 0 -118
1 -126 26 -158 29 -39 55 -44 49 -10 -4 22 -4 22 11 2 32 -42 83 -142 100
-197 9 -31 20 -55 23 -54 3 2 6 -8 7 -22 1 -36 9 -70 17 -78 4 -4 7 -15 7 -24
0 -19 50 -70 69 -70 8 0 11 6 7 15 -3 8 -8 23 -11 33 -5 14 -4 14 7 -2 7 -10
24 -31 37 -45 13 -14 17 -17 10 -6 -7 11 10 -2 38 -30 29 -27 86 -68 126 -90
41 -22 104 -67 138 -99 l64 -60 -58 33 c-56 31 -90 34 -67 6 15 -18 243 -155
266 -159 26 -5 224 -94 274 -123 86 -49 239 -104 328 -118 21 -3 49 -8 62 -11
14 -3 41 -6 60 -8 19 -2 69 -10 110 -19 41 -9 98 -19 125 -22 28 -4 67 -10 87
-15 38 -8 341 -5 413 4 147 18 274 24 293 12 6 -3 13 -3 16 2 2 4 24 9 48 11
23 1 45 6 48 10 3 5 14 7 25 5 63 -12 95 -8 109 11 12 17 18 18 34 8 11 -6 26
-10 33 -9 97 19 139 30 139 38 0 5 6 8 13 7 6 -1 25 -1 41 0 22 1 27 5 22 17
-5 13 -3 14 6 7 18 -15 50 -13 38 2 -6 8 2 14 30 22 32 8 40 7 44 -4 5 -12 9
-12 22 2 9 9 23 14 32 10 12 -4 12 -3 3 8 -9 12 -1 18 40 36 38 15 48 17 39 6
-7 -8 -9 -15 -5 -15 13 0 95 54 95 63 0 5 4 6 9 3 5 -3 14 1 21 9 7 8 19 15
26 15 8 0 14 5 14 11 0 5 4 7 10 4 12 -7 110 34 110 47 0 5 -9 4 -20 -2 -47
-25 -13 2 78 63 53 35 110 76 126 90 17 14 48 29 70 33 52 8 73 19 117 61 28
28 36 43 37 75 2 51 14 71 76 132 62 61 200 288 230 379 3 11 16 17 36 17 27
0 37 15 29 43 0 1 5 15 11 31 10 28 11 90 6 300 -1 51 3 83 11 91 6 7 10 27 8
46 -3 19 -7 67 -10 108 -3 41 -19 119 -36 173 -30 95 -33 116 -16 110 5 -1 6
2 2 8 -3 6 -10 8 -15 5 -4 -3 -11 2 -14 11 -9 24 -7 31 5 14 9 -12 10 -11 6 5
-14 54 -74 218 -103 281 -17 39 -42 101 -55 137 -12 37 -27 67 -31 67 -5 0 -6
5 -3 11 4 6 -7 25 -25 42 -31 30 -47 60 -55 100 -2 10 -30 54 -62 98 -32 43
-68 93 -81 111 -13 18 -31 42 -40 53 -9 11 -33 40 -52 65 -45 59 -82 100 -151
169 -31 31 -59 64 -63 75 -6 18 -7 18 -27 0 -17 -16 -22 -16 -29 -4 -6 8 -10
21 -10 28 0 7 -5 10 -12 6 -7 -5 -8 -3 -3 5 4 8 -6 26 -26 48 -65 67 -267 243
-291 252 -23 9 -97 66 -233 181 -57 49 -79 61 -224 126 -35 15 -58 30 -51 32
16 6 -92 59 -137 68 -18 3 -33 10 -33 14 0 9 -47 30 -80 37 -14 3 -32 6 -40 8
-8 2 -19 4 -24 4 -4 1 -6 7 -3 14 3 8 -16 27 -47 48 -28 18 -61 43 -73 54 -12
11 -68 40 -124 65 -94 41 -109 52 -205 146 -57 57 -113 106 -125 109 -15 5
-27 -1 -45 -22 -13 -15 -24 -31 -24 -34 0 -4 -19 -2 -42 3 -24 6 -64 10 -91
10 l-48 0 7 37 c4 20 10 38 13 41 9 8 13 40 4 39 -4 0 -23 -8 -41 -19z m190
-358 c10 -8 20 -22 23 -31 6 -19 78 -20 133 -3 18 6 30 7 27 2 -7 -12 72 -33
87 -24 6 4 8 3 4 -4 -4 -6 1 -11 11 -11 23 -1 54 -7 73 -14 8 -3 24 -7 35 -9
13 -2 20 -11 20 -25 0 -18 16 -30 80 -61 85 -42 262 -154 282 -179 6 -8 40
-35 76 -61 271 -196 342 -245 415 -286 45 -26 82 -52 82 -57 0 -12 168 -179
180 -179 6 0 10 -11 10 -24 0 -33 10 -56 24 -56 6 0 20 -15 31 -32 15 -27 93
-110 285 -304 2 -3 -2 -9 -9 -13 -11 -7 -9 -14 5 -37 13 -19 14 -25 5 -19 -11
6 -13 4 -8 -9 4 -10 7 -22 7 -27 0 -6 4 -8 9 -5 5 3 11 -3 14 -14 4 -17 16
-22 43 -19 3 0 12 -8 21 -18 8 -10 12 -13 9 -7 -10 20 -15 64 -7 64 14 0 91
-105 91 -123 0 -3 -9 -7 -20 -10 -14 -3 -33 8 -65 40 -43 43 -47 45 -90 40
-28 -3 -51 0 -58 7 -7 6 -26 12 -44 13 -28 2 -39 -6 -44 -35 0 -4 -5 -15 -10
-25 -8 -14 -5 -19 13 -27 13 -5 19 -9 14 -9 -5 -1 2 -12 15 -25 47 -48 82 -93
85 -110 1 -9 -1 -30 -6 -46 -5 -17 -7 -30 -5 -30 2 0 24 24 50 54 44 52 46 57
36 90 -5 20 -8 36 -7 36 4 0 93 -131 118 -172 10 -16 43 -99 73 -186 30 -86
69 -191 86 -233 16 -42 32 -89 34 -105 2 -16 11 -46 19 -66 9 -21 17 -49 18
-63 2 -22 7 -25 41 -25 l38 0 -2 48 c-2 38 -33 217 -64 367 -10 51 45 -96 66
-175 22 -85 33 -192 32 -326 -1 -129 -23 -264 -62 -377 -11 -31 -15 -57 -11
-59 5 -2 3 -14 -5 -28 -20 -35 -23 -41 -30 -74 -3 -15 -9 -26 -12 -23 -3 4
-23 -20 -45 -52 -21 -32 -49 -68 -62 -80 -23 -21 -25 -22 -55 -7 -30 16 -31
15 -47 -10 -11 -16 -18 -47 -18 -82 -1 -70 -11 -90 -34 -69 -11 9 -29 13 -50
10 -25 -4 -37 -14 -51 -42 -22 -43 -40 -59 -104 -96 -46 -27 -48 -27 -62 -9
-8 11 -15 22 -15 27 0 11 -76 -30 -98 -53 -16 -17 -22 -18 -49 -8 -28 11 -33
9 -56 -18 -27 -31 -49 -34 -177 -24 -60 4 -59 4 -46 -57 6 -26 4 -34 -15 -43
-16 -9 -28 -9 -46 -1 -22 10 -30 8 -58 -13 l-32 -25 4 23 c7 35 -7 37 -78 15
-35 -11 -80 -18 -99 -16 -47 5 -97 -19 -109 -55 -14 -41 -21 -35 -19 17 l1 45
95 45 c51 25 104 47 117 49 12 2 36 11 51 20 57 30 57 30 38 68 l-16 35 -107
-43 c-102 -42 -108 -43 -145 -30 -23 8 -41 21 -42 31 -1 9 -5 19 -7 21 -7 7
-38 7 -72 1 -16 -4 -59 -9 -95 -12 -36 -3 -81 -7 -100 -10 -19 -3 -53 -7 -75
-10 -22 -2 -49 -6 -60 -9 -19 -3 -84 -13 -152 -22 -18 -2 -48 -6 -65 -8 -18
-3 -60 -8 -93 -12 -43 -4 -64 -12 -74 -26 -13 -19 -14 -19 -25 4 -10 19 -19
23 -58 22 -41 -1 -51 -7 -92 -48 l-46 -46 -53 20 c-184 71 -260 131 -277 219
-12 63 -16 71 -38 71 -26 0 -159 66 -212 105 -26 19 -50 31 -54 27 -5 -4 -7 0
-6 8 6 41 -1 56 -32 68 -33 12 -64 37 -166 134 -52 50 -127 148 -101 133 8 -5
6 1 -5 13 -18 21 -18 22 5 31 13 5 33 10 44 12 15 3 6 12 -39 39 -64 38 -88
73 -126 180 -12 36 -35 92 -51 124 -15 33 -26 63 -23 68 3 4 -15 40 -38 80
-68 113 -78 148 -43 148 25 0 35 34 23 76 -13 43 -16 277 -6 362 5 39 1 75
-13 130 -21 77 -21 172 -3 322 8 60 96 325 133 399 17 32 27 61 24 65 -4 3 -2
6 4 6 5 0 10 6 10 13 0 45 156 305 254 425 5 6 8 12 6 12 -5 0 96 112 163 181
52 53 169 135 257 178 57 29 192 66 273 77 19 2 62 8 95 12 79 10 156 3 177
-16z m1728 -847 c13 -14 21 -25 18 -25 -2 0 -15 11 -28 25 -13 14 -21 25 -18
25 2 0 15 -11 28 -25z m140 -720 c13 -14 21 -25 18 -25 -2 0 -15 11 -28 25
-13 14 -21 25 -18 25 2 0 15 -11 28 -25z m263 -113 c63 -88 106 -175 78 -158
-5 3 -18 24 -30 46 -11 21 -33 59 -48 82 -34 53 -64 108 -60 108 2 0 29 -35
60 -78z m-2812 -1768 c12 -14 11 -16 -5 -13 -11 2 -21 10 -24 17 -5 17 13 15
29 -4z m128 -56 c11 3 12 -1 8 -19 -4 -13 -7 -27 -7 -31 0 -3 -9 -4 -21 -1
-12 4 -18 11 -15 20 3 8 1 24 -5 36 -11 21 -11 21 7 6 10 -9 25 -14 33 -11z
m2031 -612 c0 -2 -7 -7 -16 -10 -8 -3 -12 -2 -9 4 6 10 25 14 25 6z m-350 -90
c0 -2 -7 -6 -15 -10 -8 -3 -15 -1 -15 4 0 6 7 10 15 10 8 0 15 -2 15 -4z"/>
<path d="M553 14788 c4 -45 25 -98 38 -98 8 0 25 48 25 67 -1 17 -45 73 -57
73 -7 0 -9 -16 -6 -42z"/>
<path d="M612 14580 c-24 -32 -28 -76 -9 -101 13 -16 77 -22 77 -7 0 5 4 7 9
4 9 -6 31 36 31 59 0 8 -4 15 -9 15 -5 0 -11 14 -14 30 -9 42 -54 42 -85 0z"/>
<path d="M14487 17067 c-15 -19 -16 -22 -1 -30 14 -8 14 -11 -1 -27 -15 -17
-15 -19 2 -24 27 -8 45 -3 80 23 27 20 30 26 20 43 -8 12 -19 17 -32 14 -10
-3 -26 1 -35 9 -13 12 -18 11 -33 -8z"/>
<path d="M13160 16981 c0 -11 11 -33 25 -48 22 -26 24 -26 25 -7 0 28 -23 74
-37 74 -7 0 -13 -9 -13 -19z"/>
<path d="M13128 16904 c-9 -8 7 -57 20 -62 13 -4 27 42 17 57 -7 12 -28 15
-37 5z"/>
<path d="M11276 16667 c3 -10 9 -15 12 -12 3 3 0 11 -7 18 -10 9 -11 8 -5 -6z"/>
<path d="M19882 16339 c-12 -5 -29 -6 -38 -2 -13 5 -15 -1 -12 -33 l3 -39 72
-1 c65 -1 71 0 75 20 8 50 -1 65 -40 64 -20 0 -47 -4 -60 -9z"/>
<path d="M16822 16200 c-26 -22 -23 -32 31 -91 9 -10 17 -22 16 -26 -2 -17 19
-11 50 14 l32 28 -47 48 c-26 26 -50 47 -53 47 -3 -1 -16 -9 -29 -20z"/>
<path d="M18957 16019 c-108 -114 -189 -233 -259 -379 -96 -200 -118 -231
-191 -278 -60 -39 -91 -54 -207 -103 -77 -32 -133 -64 -223 -125 -43 -30 -82
-54 -87 -54 -5 0 -12 -5 -15 -11 -7 -10 41 -7 120 6 67 12 115 13 115 2 0 -25
-42 -95 -70 -115 -32 -24 -58 -66 -64 -104 -4 -29 -14 -27 -112 21 -44 21 -80
35 -82 30 -2 -5 4 -31 13 -59 13 -40 14 -57 6 -83 -15 -44 -96 -135 -160 -178
-52 -35 -62 -57 -36 -79 8 -7 24 -27 36 -46 18 -30 19 -36 6 -54 -7 -11 -16
-18 -19 -15 -3 3 -12 -5 -21 -18 -24 -37 -131 -113 -190 -135 -49 -19 -58 -19
-118 -7 -35 8 -70 14 -78 15 -15 0 80 -70 130 -95 l29 -16 -27 -47 c-15 -26
-38 -65 -52 -87 -14 -22 -24 -43 -23 -47 1 -5 -2 -8 -8 -8 -6 0 -9 -3 -8 -7 3
-14 -25 -63 -35 -63 -6 0 -7 -3 -4 -7 4 -3 -1 -12 -11 -20 -10 -9 -11 -12 -2
-7 8 4 -1 -9 -20 -29 -19 -20 -40 -37 -47 -37 -10 0 -113 228 -113 250 0 5 -4
11 -8 14 -4 3 -7 -7 -6 -22 1 -15 5 -67 8 -117 4 -49 10 -110 13 -135 4 -25 7
-67 7 -95 l1 -50 -35 1 c-19 0 -51 4 -71 8 l-36 8 -13 -64 c-22 -106 -76 -268
-90 -268 -4 0 -12 17 -18 38 -11 36 -95 142 -105 132 -7 -8 -74 -182 -82 -215
-15 -64 -18 -82 -18 -140 0 -60 18 -111 51 -145 9 -8 45 -35 80 -60 36 -25 74
-56 84 -70 21 -30 28 -88 16 -145 -5 -22 -9 -45 -10 -52 -1 -7 -6 -9 -11 -6
-6 4 -8 -2 -5 -15 4 -12 1 -25 -4 -29 -6 -3 -8 -1 -5 4 4 6 -1 13 -11 16 -9 3
-32 10 -49 15 -31 10 -33 9 -33 -14 0 -14 4 -23 8 -20 5 3 6 -9 4 -26 -3 -17
-1 -28 4 -25 8 4 10 -7 14 -76 1 -9 5 -15 10 -12 11 7 2 -23 -11 -41 -5 -6 -5
-15 -1 -19 4 -5 2 -6 -3 -2 -6 3 -39 -20 -73 -51 l-62 -57 28 -55 c39 -78 37
-182 -6 -320 -9 -30 -21 -58 -27 -62 -5 -4 -6 -8 -1 -8 5 0 2 -7 -5 -17 -8 -9
-13 -17 -11 -17 2 -1 -2 -14 -8 -31 -48 -127 -118 -328 -136 -395 -8 -30 -18
-64 -21 -75 -3 -11 -7 -81 -9 -156 -2 -96 -8 -144 -19 -165 -8 -16 -15 -32
-15 -37 0 -4 -12 -26 -26 -48 -39 -63 -105 -191 -95 -184 6 3 6 -8 0 -27 -34
-109 -37 -121 -44 -190 -4 -41 -2 -48 12 -50 10 -1 27 -2 38 -3 11 -1 26 -3
33 -4 9 -1 8 -7 -5 -25 -10 -13 -21 -22 -25 -20 -3 2 -14 -17 -24 -43 -10 -27
-24 -57 -31 -68 -7 -11 -31 -81 -54 -155 -23 -74 -46 -144 -52 -155 -6 -11
-12 -25 -13 -30 -1 -6 -22 -71 -47 -145 -78 -233 -223 -514 -291 -564 -29 -21
-32 -37 -13 -69 46 -76 48 -78 64 -68 9 5 21 23 27 42 6 18 16 34 23 36 30 10
50 -161 30 -255 -5 -25 -34 -91 -64 -145 -30 -54 -56 -106 -58 -115 -2 -9 -11
-35 -19 -57 -19 -51 -20 -87 -1 -130 23 -56 60 -59 70 -6 9 48 16 60 36 58 19
-1 20 -7 17 -78 -2 -43 1 -75 5 -72 4 2 6 -7 3 -21 -3 -17 -1 -24 6 -20 6 4 8
-1 3 -16 -5 -17 -4 -21 6 -15 9 6 11 3 6 -8 -3 -10 -2 -17 3 -17 6 0 10 -5 10
-12 0 -6 8 -20 18 -31 11 -14 12 -18 2 -12 -9 6 -6 -4 8 -26 58 -88 86 -162
106 -279 4 -26 3 -31 -4 -20 -8 11 -10 5 -8 -24 4 -61 -17 -54 -43 14 -13 33
-29 60 -34 60 -6 0 -27 14 -47 30 l-37 31 25 -46 c14 -25 23 -45 19 -45 -3 0
2 -12 13 -27 28 -39 90 -195 104 -256 6 -29 19 -69 29 -89 11 -21 19 -44 19
-52 0 -12 122 -430 137 -466 3 -8 7 -26 9 -40 6 -51 15 -71 26 -64 7 4 8 3 4
-4 -4 -6 0 -22 9 -36 9 -13 17 -38 17 -55 1 -18 5 -28 11 -24 6 3 7 1 3 -6
-10 -16 3 -53 16 -45 7 4 8 2 4 -5 -10 -16 3 -53 16 -45 7 4 8 2 4 -5 -8 -12
52 -148 104 -241 14 -25 43 -90 65 -145 65 -167 242 -500 298 -560 10 -11 43
-57 74 -102 30 -45 77 -109 104 -142 27 -34 49 -64 49 -66 0 -19 211 -227 315
-311 73 -59 279 -204 290 -204 2 0 43 -25 90 -56 99 -64 332 -178 455 -222
110 -40 332 -102 364 -102 13 0 26 7 30 15 4 13 10 13 47 0 94 -33 237 -53
369 -50 175 3 201 5 197 12 -3 5 18 8 46 8 59 1 106 7 266 36 63 11 124 21
135 21 12 1 55 9 96 18 41 10 104 23 138 30 63 13 88 34 61 50 -12 8 -98 4
-126 -5 -7 -2 -13 -1 -13 3 0 11 194 101 295 137 50 18 114 44 143 59 29 15
56 24 61 22 4 -3 17 3 27 12 10 10 24 20 29 21 24 8 41 16 50 23 6 4 24 19 41
33 17 13 33 23 35 21 5 -5 62 -13 145 -21 57 -6 65 -4 114 27 43 27 62 32 105
31 29 0 66 -8 82 -17 76 -39 161 -41 200 -5 15 15 56 41 90 59 34 17 88 53
120 79 32 25 74 57 93 71 74 50 279 262 310 320 14 26 40 26 35 0 -2 -11 -7
-25 -10 -30 -4 -6 -7 -35 -8 -65 -3 -55 -2 -55 15 -33 54 69 110 181 144 286
53 170 135 314 175 309 23 -2 13 -22 189 373 45 102 102 224 125 272 24 47 40
90 37 94 -4 4 -2 4 4 1 12 -7 134 236 137 272 1 12 5 21 10 21 5 0 6 8 3 17
-4 10 -4 14 0 11 8 -8 34 16 34 31 0 6 4 11 10 11 5 0 7 6 4 13 -3 8 2 19 10
26 12 11 13 17 4 35 -11 20 -10 20 7 6 10 -8 16 -10 12 -3 -4 6 -1 14 5 16 8
3 6 6 -4 6 -21 1 -22 10 -4 33 7 10 17 14 22 10 4 -4 3 0 -3 8 -9 11 -8 21 3
40 l14 25 -5 -30 c-4 -23 -1 -20 14 15 11 25 20 53 20 63 1 9 5 25 10 35 13
23 46 125 43 135 -1 4 2 7 8 7 5 0 10 8 10 18 0 9 9 44 19 77 10 33 16 66 11
74 -4 8 -1 44 7 80 17 72 37 118 28 64 -3 -18 -2 -33 3 -33 11 0 10 51 -2 68
-4 7 -5 16 -2 19 3 4 6 1 6 -6 0 -7 5 -9 10 -6 8 5 8 11 0 20 -8 10 -8 37 2
102 10 70 14 82 19 58 10 -43 11 -28 15 140 2 83 5 185 6 228 2 44 0 81 -3 83
-4 2 -4 15 -1 29 2 14 0 25 -6 25 -6 0 -9 7 -8 16 1 9 -1 36 -4 61 -5 31 -3
46 5 49 13 5 8 64 -6 64 -5 0 -5 -8 -2 -17 5 -13 3 -13 -13 3 -11 11 -26 47
-33 79 -15 67 -62 217 -70 225 -3 3 -22 39 -41 80 -36 79 -85 160 -133 222
-16 21 -39 57 -51 80 -12 24 -31 47 -42 52 -11 5 -43 41 -70 79 -147 211 -534
533 -751 627 -54 23 -116 50 -138 60 -38 18 -88 31 -295 79 -156 36 -522 45
-670 16 -9 -2 -41 -6 -71 -10 -58 -7 -265 -49 -314 -64 -31 -9 -165 -67 -272
-118 -58 -28 -60 -31 -42 -44 19 -13 19 -14 -13 -21 -44 -9 88 1 155 12 78 12
263 4 342 -15 39 -9 81 -18 95 -19 36 -4 191 -37 215 -46 133 -51 171 -65 177
-63 5 2 8 -2 8 -8 0 -5 5 -7 10 -4 6 4 17 2 24 -4 6 -6 32 -12 57 -15 51 -5
155 -40 178 -60 9 -7 86 -37 171 -66 85 -29 205 -75 268 -102 62 -26 115 -48
117 -48 3 0 44 -18 91 -40 47 -22 87 -40 89 -40 2 0 50 -22 107 -49 57 -26
113 -51 125 -55 12 -4 27 -14 35 -23 11 -14 11 -16 -1 -8 -10 5 -12 4 -7 -3 4
-7 13 -12 21 -12 14 0 56 -52 59 -74 2 -15 32 -63 55 -88 23 -24 56 -82 42
-74 -6 4 5 -23 24 -61 43 -83 48 -111 24 -144 -10 -14 -17 -28 -15 -30 2 -2 6
-36 10 -74 4 -39 8 -81 11 -95 2 -14 6 -54 9 -90 10 -114 17 -165 26 -175 5
-6 12 -53 15 -105 l7 -95 -76 -55 c-74 -54 -75 -56 -76 -100 -3 -132 -6 -156
-17 -168 -16 -16 -7 -39 18 -47 10 -4 19 -11 19 -17 0 -11 -82 -168 -139 -268
-17 -30 -37 -65 -43 -77 -6 -13 -19 -25 -29 -28 -11 -4 -20 -19 -24 -38 -7
-47 -15 -157 -11 -157 2 0 13 14 24 32 l21 32 10 -27 c9 -22 6 -39 -15 -93
-15 -36 -24 -68 -20 -71 3 -3 18 -6 33 -7 51 -2 52 -9 26 -103 -89 -319 -246
-604 -514 -934 -43 -54 -102 -128 -131 -166 -29 -37 -65 -78 -80 -91 -15 -13
-28 -29 -28 -36 0 -7 -24 -37 -53 -67 -29 -29 -76 -83 -106 -119 -111 -136
-246 -262 -328 -304 -45 -23 -48 -21 -47 26 1 42 -17 78 -40 78 -6 0 -22 -17
-36 -38 -22 -32 -25 -48 -25 -124 0 -93 -3 -99 -71 -158 -49 -43 -50 -43 -79
28 -52 129 -58 142 -66 142 -4 0 -11 9 -14 20 -11 36 -20 21 -19 -32 1 -80 -7
-101 -47 -115 -31 -11 -201 -10 -284 2 -16 2 -55 7 -85 10 -30 3 -68 8 -85 11
-121 18 -286 19 -352 1 -44 -12 -153 -13 -153 -1 0 2 20 32 45 67 25 36 45 67
45 70 0 3 -15 14 -32 26 l-33 20 -30 -28 c-34 -32 -106 -58 -149 -55 -37 4
-126 36 -121 44 6 10 -135 71 -146 64 -8 -5 -8 -56 1 -99 7 -34 -2 -44 -45
-51 -27 -4 -42 -10 -38 -17 4 -6 1 -7 -8 -1 -15 9 -20 10 -56 12 -18 2 -23 8
-23 30 0 16 -10 39 -21 51 l-22 23 -12 -29 c-14 -33 -87 -75 -112 -66 -14 6
-14 8 0 18 14 10 52 84 45 86 -11 3 -41 7 -88 12 -84 10 -156 35 -192 67 -31
29 -51 34 -108 31 -52 -4 -84 -34 -85 -81 0 -18 -10 -16 -52 13 -49 34 -47 50
12 104 29 26 60 63 69 80 14 29 20 32 49 28 113 -15 312 -21 405 -11 60 6 373
116 397 139 7 7 7 8 0 5 -5 -3 -48 -9 -95 -12 -47 -4 -107 -10 -135 -14 -96
-13 -384 -5 -389 10 -7 21 -42 76 -54 85 -9 7 -13 15 -11 18 8 7 49 13 99 15
l45 1 -58 33 c-31 18 -54 36 -50 41 5 4 3 5 -3 2 -6 -4 -25 6 -42 21 -16 15
-45 37 -63 50 -76 51 -340 251 -394 297 -77 66 -252 240 -293 292 -21 27 -29
44 -22 48 17 10 -17 43 -75 73 -42 21 -67 26 -153 29 -100 3 -148 15 -137 33
5 9 -11 119 -38 256 -19 96 -14 222 13 324 15 52 13 62 -9 55 -16 -5 -24 3
-40 40 -18 42 -19 75 -2 75 11 0 11 42 -1 63 -5 11 -10 34 -10 52 0 30 -3 33
-34 37 -19 2 -34 0 -34 -5 0 -4 -4 -5 -10 -2 -11 7 -4 70 11 97 5 9 9 30 9 47
0 36 10 34 84 -15 46 -31 75 -37 60 -12 -8 13 -44 175 -51 231 -6 42 -3 43 56
22 42 -14 42 -14 35 8 -3 12 -21 42 -39 67 -58 80 -105 196 -120 297 -3 21 -7
48 -9 59 -2 11 -7 47 -11 80 -3 32 -8 75 -10 94 -2 19 -6 62 -10 95 -3 33 -10
91 -15 130 -5 38 -7 71 -5 73 2 2 30 -2 63 -8 33 -7 65 -11 71 -9 5 2 -12 32
-38 66 -62 79 -70 122 -76 383 -4 192 -9 251 -25 280 -5 9 -3 18 5 25 11 8 2
41 -46 175 -33 91 -57 174 -54 186 6 26 42 43 83 39 47 -4 49 1 56 140 5 86 9
134 22 235 6 49 24 120 57 220 12 36 21 67 22 70 0 3 13 31 29 63 l28 58 -40
37 c-32 30 -42 48 -52 97 -12 56 -15 215 -6 260 2 11 7 45 10 76 4 31 9 67 11
80 3 13 8 40 11 59 4 19 29 94 55 165 27 72 49 136 49 143 0 7 12 40 26 75 14
34 27 71 28 82 6 46 404 1136 456 1250 5 11 59 146 121 300 61 154 174 427
250 607 76 179 147 356 158 392 27 87 102 268 109 261 3 -3 30 50 59 117 30
68 73 161 95 208 58 122 95 239 112 352 14 89 59 280 96 401 22 72 38 132 37
134 -2 1 -24 -20 -50 -48z m3344 -6646 c13 -16 12 -17 -3 -4 -17 13 -22 21
-14 21 2 0 10 -8 17 -17z m148 -253 c0 -10 -3 -8 -9 5 -12 27 -12 43 0 25 5
-8 9 -22 9 -30z m35 -847 c-2 -60 -12 -185 -19 -238 -2 -16 -7 -73 -10 -125
-4 -52 -11 -122 -16 -155 -10 -66 -37 -159 -39 -135 -1 8 -18 -41 -39 -110
-21 -69 -43 -135 -49 -146 -12 -23 -38 -37 -53 -29 -18 12 -21 74 -5 123 9 27
18 57 21 68 2 10 13 51 25 89 11 39 23 84 26 100 2 17 7 38 10 47 3 9 7 27 9
40 28 147 38 188 53 220 9 21 20 38 24 38 9 0 11 60 4 150 -2 35 3 52 23 82
14 20 29 37 32 38 3 0 4 -26 3 -57z m-5310 -580 c8 -16 48 -64 90 -108 41 -44
72 -82 68 -85 -4 -4 -19 -11 -34 -17 -24 -11 -27 -10 -38 20 -18 48 -37 87
-75 147 -19 30 -35 58 -35 62 0 16 10 8 24 -19z"/>
<path d="M7560 15901 c0 -6 4 -13 10 -16 6 -3 7 1 4 9 -7 18 -14 21 -14 7z"/>
<path d="M21785 15645 c-16 -20 -31 -37 -32 -39 -2 -1 2 -17 8 -34 7 -21 18
-32 30 -32 10 0 19 -5 19 -11 0 -8 4 -8 14 0 11 10 15 9 18 -4 3 -14 5 -14 26
0 23 17 31 68 12 80 -6 4 -8 11 -5 16 5 8 -42 58 -55 59 -3 0 -18 -16 -35 -35z"/>
<path d="M11705 15639 c-9 -17 -14 -37 -12 -44 3 -7 -1 -24 -8 -39 -8 -15 -10
-28 -4 -31 5 -4 2 -20 -8 -38 -9 -18 -20 -48 -24 -67 -4 -19 -10 -45 -14 -56
-6 -19 -1 -24 30 -34 28 -9 39 -9 50 0 8 7 13 16 10 20 -3 5 -1 19 4 32 13 34
23 94 25 148 0 25 4 47 7 50 3 3 9 16 12 31 5 20 1 28 -23 42 l-29 18 -16 -32z"/>
<path d="M21665 15650 c-4 -6 -11 -8 -16 -5 -5 4 -9 1 -9 -5 0 -7 -7 -10 -15
-6 -11 4 -15 -2 -15 -20 0 -35 17 -64 38 -65 10 0 6 -5 -10 -11 -20 -7 -28
-17 -28 -34 0 -24 0 -24 37 -9 21 9 40 21 44 27 4 7 9 6 13 -3 3 -8 4 -4 2 8
-2 13 0 26 6 29 5 3 8 15 5 25 -3 10 0 20 6 22 14 4 -21 57 -39 57 -7 0 -16
-5 -19 -10z"/>
<path d="M17187 14511 c-22 -25 -23 -30 -10 -35 9 -4 13 -9 9 -13 -3 -3 -14 1
-23 9 -24 21 -72 6 -51 -16 15 -15 58 -31 72 -28 5 2 5 -5 2 -15 -5 -13 -1
-12 18 6 15 14 26 19 26 12 0 -20 38 6 54 37 15 29 12 34 -32 60 -30 17 -35
16 -65 -17z"/>
<path d="M17274 14432 c3 -5 -2 -20 -12 -32 -18 -22 -19 -70 -2 -70 4 0 7 -7
6 -16 0 -9 9 -20 20 -24 17 -7 29 -1 58 26 l36 34 -21 19 c-12 11 -18 24 -15
30 4 5 -3 15 -14 21 -11 6 -20 8 -20 5 0 -3 -10 -1 -21 6 -12 6 -19 7 -15 1z"/>
<path d="M5465 14210 c-10 -16 6 -78 21 -84 17 -7 54 14 54 30 0 10 -54 64
-64 64 -3 0 -8 -4 -11 -10z"/>
<path d="M8233 13893 c-18 -12 -20 -19 -12 -34 6 -13 6 -19 -1 -19 -5 0 -10 6
-10 14 0 8 -6 16 -12 19 -17 5 -48 -3 -48 -14 0 -13 42 -49 57 -49 8 0 11 -5
7 -12 -5 -8 -2 -9 12 -3 10 4 33 7 49 6 24 -1 34 5 48 28 17 29 17 30 -10 55
-32 30 -49 31 -80 9z"/>
<path d="M8294 13775 c-3 -8 -12 -15 -18 -15 -7 0 -13 -13 -13 -30 0 -16 5
-30 11 -30 6 0 4 -5 -4 -10 -13 -9 -12 -12 4 -25 23 -18 41 -15 84 12 29 18
31 22 18 35 -8 9 -12 24 -10 36 9 32 -60 59 -72 27z"/>
<path d="M7570 13689 c-14 -10 -30 -19 -36 -19 -27 0 -6 -30 35 -51 53 -26 62
-28 78 -17 13 10 5 44 -17 74 -23 32 -34 34 -60 13z"/>
<path d="M2927 12479 c7 -7 15 -10 18 -7 3 3 -2 9 -12 12 -14 6 -15 5 -6 -5z"/>
<path d="M16301 10694 c0 -11 3 -14 6 -6 3 7 2 16 -1 19 -3 4 -6 -2 -5 -13z"/>
<path d="M17534 10678 c-11 -18 0 -116 19 -158 l20 -45 28 35 c38 45 38 83 -1
127 -16 18 -30 37 -30 42 0 10 -29 10 -36 -1z"/>
<path d="M19408 10169 c21 -22 13 -32 -23 -26 -19 3 -36 2 -36 -4 -1 -5 -2
-14 -3 -21 -1 -13 -121 -78 -145 -78 -31 0 -123 -54 -132 -77 -12 -32 -1 -71
23 -84 16 -9 19 -8 13 2 -6 8 -4 10 5 4 21 -13 174 -13 182 -1 5 7 8 3 8 -9 1
-19 1 -19 14 -2 8 10 21 17 29 15 9 -2 16 2 17 7 1 6 7 19 13 30 6 11 10 25 9
32 -2 7 7 17 18 23 11 6 20 9 20 6 0 -7 40 16 78 43 35 27 41 51 17 74 -8 8
-12 17 -9 20 8 8 -59 51 -86 55 -20 3 -23 1 -12 -9z"/>
<path d="M19811 10129 l-24 -19 54 6 c60 7 77 14 35 14 -16 0 -25 4 -21 10 11
17 -19 10 -44 -11z"/>
<path d="M18408 9743 c-53 -23 -58 -28 -58 -57 0 -24 -3 -27 -10 -16 -7 11
-10 8 -10 -16 0 -46 43 -85 86 -81 19 2 37 6 40 9 3 4 20 4 38 2 28 -3 35 0
45 23 11 24 9 29 -18 54 -17 15 -32 34 -33 41 0 7 -2 18 -3 23 -2 6 -3 18 -4
28 -1 21 -4 21 -73 -10z"/>
<path d="M22226 9430 c10 -16 19 -28 21 -26 6 6 -20 56 -29 56 -5 0 -1 -13 8
-30z"/>
<path d="M8541 9308 c-10 -36 -7 -192 4 -220 6 -16 8 -16 25 0 25 24 50 77 50
105 0 30 -44 140 -58 145 -6 2 -15 -12 -21 -30z"/>
<path d="M9960 8920 c-8 -5 -12 -10 -8 -10 4 0 -5 -28 -18 -61 -31 -76 -27
-92 22 -85 55 9 132 66 147 109 14 37 -100 75 -143 47z"/>
<path d="M8568 8739 c-50 -33 -54 -44 -42 -107 7 -36 39 -53 74 -40 14 5 37 7
53 4 34 -7 34 -2 0 48 -21 30 -27 50 -26 83 1 23 -2 43 -5 43 -4 0 -28 -14
-54 -31z"/>
<path d="M22967 8720 c3 -11 7 -20 9 -20 2 0 4 9 4 20 0 11 -4 20 -9 20 -5 0
-7 -9 -4 -20z"/>
<path d="M9433 8640 c-10 -13 -26 -30 -35 -39 -10 -8 -18 -19 -18 -23 0 -12
-38 -47 -44 -41 -3 3 -8 -7 -12 -21 -3 -15 -9 -25 -12 -22 -7 8 -33 -44 -37
-77 -3 -18 1 -30 10 -34 8 -3 15 -11 15 -19 0 -18 40 -44 67 -44 14 0 23 -6
23 -15 0 -20 63 -52 68 -35 3 7 13 21 23 31 11 11 19 22 19 25 0 3 9 18 20 34
11 15 17 30 13 33 -3 4 2 9 11 13 9 3 16 15 16 26 0 10 5 16 10 13 6 -3 10 0
10 9 0 8 10 27 23 43 12 15 31 43 41 62 l19 34 -23 19 c-23 18 -49 21 -53 5
-1 -5 -28 -35 -59 -69 -32 -33 -58 -66 -58 -72 0 -16 -41 -52 -67 -58 -39 -10
-27 25 38 112 l62 82 -26 25 -25 26 -19 -23z"/>
<path d="M15911 8464 c0 -11 3 -14 6 -6 3 7 2 16 -1 19 -3 4 -6 -2 -5 -13z"/>
<path d="M14364 8411 c5 -7 -2 -11 -15 -11 -22 0 -21 -2 12 -37 20 -21 43 -48
51 -61 14 -21 85 -96 133 -141 11 -10 30 -24 42 -30 22 -11 22 -10 11 14 -6
14 -15 25 -20 25 -4 0 -7 3 -6 8 1 4 -4 20 -10 35 -7 16 -12 33 -12 38 0 6 -5
7 -12 3 -8 -5 -9 -2 -5 9 3 9 3 16 -1 16 -19 -3 -23 2 -13 15 10 12 8 17 -8
25 -11 6 -26 17 -33 23 -37 35 -125 88 -114 69z m100 -94 c27 -24 3 -12 -53
26 -31 21 -40 32 -30 38 8 5 21 -2 37 -19 13 -15 34 -35 46 -45z m80 -93 c3
-8 2 -12 -4 -9 -6 3 -10 10 -10 16 0 14 7 11 14 -7z"/>
<path d="M22007 8208 c-6 -4 -14 -5 -18 -2 -4 2 -11 -1 -15 -7 -5 -8 -3 -9 6
-4 9 5 11 4 6 -3 -4 -7 -16 -12 -27 -12 -10 0 -19 -6 -20 -12 0 -7 -2 -78 -3
-158 -1 -80 -4 -152 -7 -160 -6 -23 16 -18 50 13 17 15 31 24 31 20 0 -11 60
60 61 72 1 6 1 13 0 18 0 4 3 7 7 7 5 0 9 6 9 13 3 41 12 152 13 152 1 0 3 9
4 20 2 11 5 27 7 35 3 12 -6 15 -44 15 -27 0 -54 -3 -60 -7z"/>
<path d="M14218 8152 c-16 -2 -28 -5 -28 -7 0 -2 -7 -30 -15 -61 l-15 -56 33
-33 c18 -18 42 -35 55 -39 12 -4 22 -11 22 -16 0 -5 16 -26 35 -47 19 -21 35
-34 35 -29 0 8 39 -31 76 -77 7 -8 15 -29 19 -48 15 -75 16 -75 47 -4 22 52
27 76 21 99 -4 17 -7 33 -7 36 -3 20 -60 100 -82 115 -35 23 -124 113 -124
125 0 6 -8 10 -17 10 -15 0 -16 2 -3 10 13 8 13 10 -2 10 -9 0 -18 3 -20 8 -1
4 -15 6 -30 4z"/>
<path d="M9080 8052 c-8 -9 -31 -37 -50 -62 -31 -40 -64 -79 -110 -129 -73
-80 -86 -112 -51 -131 15 -8 41 1 130 46 61 31 112 61 112 67 5 38 -3 213 -9
219 -4 4 -14 0 -22 -10z"/>
<path d="M17375 7811 c0 -9 5 -22 9 -30 5 -7 4 -17 -2 -23 -8 -8 -7 -15 1 -24
27 -30 37 -44 37 -50 0 -3 9 -17 20 -31 11 -14 17 -29 14 -34 -3 -5 -1 -9 3
-9 5 0 22 -24 38 -54 29 -54 47 -58 37 -10 -2 13 -11 24 -18 24 -8 0 -22 17
-32 38 -9 20 -19 39 -22 42 -3 3 -10 20 -17 37 -14 39 1 54 25 27 16 -17 16
-17 0 -5 -10 8 -18 10 -18 7 0 -15 52 -108 57 -102 3 3 -2 17 -11 31 -9 14
-12 25 -7 25 10 0 5 22 -19 88 -8 22 -17 31 -26 28 -9 -3 -14 2 -14 14 0 11
-6 20 -12 21 -7 0 -20 2 -29 4 -9 1 -15 -4 -14 -14z"/>
<path d="M15692 6840 c0 -14 2 -19 5 -12 2 6 2 18 0 25 -3 6 -5 1 -5 -13z"/>
<path d="M22537 6813 c-4 -3 -7 -11 -7 -17 0 -6 5 -5 12 2 6 6 9 14 7 17 -3 3
-9 2 -12 -2z"/>
<path d="M22517 6773 c-4 -3 -7 -11 -7 -17 0 -6 5 -5 12 2 6 6 9 14 7 17 -3 3
-9 2 -12 -2z"/>
<path d="M22497 6733 c-4 -3 -7 -11 -7 -17 0 -6 5 -5 12 2 6 6 9 14 7 17 -3 3
-9 2 -12 -2z"/>
<path d="M22446 6633 c-6 -14 -5 -15 5 -6 7 7 10 15 7 18 -3 3 -9 -2 -12 -12z"/>
<path d="M8695 5829 c4 -13 12 -28 18 -34 7 -7 8 -4 4 8 -4 11 -3 16 3 12 6
-3 7 -17 4 -30 -4 -18 0 -26 18 -36 12 -7 35 -26 51 -42 15 -16 27 -26 27 -21
0 4 17 -9 37 -29 20 -20 40 -37 45 -37 5 0 21 -11 35 -24 15 -14 30 -23 35
-20 12 8 -25 54 -39 49 -7 -2 -13 0 -13 5 0 6 -3 9 -8 8 -4 -2 -18 7 -32 20
-13 12 -27 22 -31 22 -4 0 -11 9 -14 21 -4 11 -9 18 -13 15 -3 -3 -12 3 -20
15 -19 27 -3 42 23 22 16 -13 17 -15 3 -10 -10 4 -18 2 -18 -3 0 -9 14 -14 33
-11 4 0 7 -4 7 -10 0 -13 50 -59 64 -59 5 0 -3 10 -17 23 -15 12 -27 28 -27
34 0 19 -80 108 -95 105 -8 -2 -15 2 -15 8 0 6 -10 10 -22 9 -13 -2 -29 0 -37
5 -10 7 -12 3 -6 -15z"/>
<path d="M13450 5029 c-13 -6 -27 -13 -30 -17 -6 -8 -76 -61 -101 -77 -9 -5
-41 -26 -70 -46 -30 -20 -69 -45 -86 -55 -18 -10 -33 -22 -33 -26 0 -8 -44
-30 -63 -32 -4 -1 -11 -6 -15 -12 -4 -6 -22 -17 -39 -25 -18 -8 -33 -17 -33
-21 0 -5 -9 -8 -21 -8 -11 0 -18 -4 -15 -9 4 -5 -3 -7 -13 -4 -13 3 -24 -2
-33 -16 -7 -12 -16 -21 -21 -21 -4 0 -5 6 -1 13 5 8 2 8 -9 -2 -9 -7 -17 -10
-17 -5 0 5 -5 2 -10 -7 -5 -8 -7 -24 -5 -35 2 -10 4 -23 4 -27 1 -5 16 -5 34
-1 17 4 38 7 45 7 6 0 12 4 12 8 0 6 30 17 47 17 3 0 9 6 14 14 5 7 13 14 19
14 5 1 15 2 21 3 5 0 7 6 3 13 -4 7 -3 8 5 4 7 -5 20 1 32 15 10 12 19 19 19
14 0 -4 7 -2 15 5 8 7 15 9 15 4 0 -4 9 2 20 14 12 12 51 37 88 56 115 57 130
66 136 81 3 8 12 15 21 15 8 0 15 4 15 9 0 9 11 16 88 56 37 20 38 26 15 66
-19 32 -18 32 -53 18z"/>
<path d="M12267 3469 c7 -7 15 -10 18 -7 3 3 -2 9 -12 12 -14 6 -15 5 -6 -5z"/>
</g>
</svg>
